<svg width="185" height="174" viewBox="0 0 185 174" fill="none" xmlns="http://www.w3.org/2000/svg">
<g clip-path="url(#clip0_327_2)">
<path d="M0 0V115.869L21.1187 100.158L21.4003 101.729H21.6819L21.1187 97.4086L23.653 99.7652C21.1776 101.004 22.2772 103.239 23.0898 105.657H23.3714L23.0898 104.871H23.3714L27.5951 105.264V103.3L24.4977 102.122V101.729L28.1583 102.907L28.7215 97.0158H28.4399V98.9797C24.9325 98.3442 22.7474 93.4423 22.2451 88.7675L23.7762 92.9235L28.1583 96.623L29.003 96.2303V100.551H29.2846C29.2846 98.909 29.8529 94.5142 28.4399 94.2664L28.1583 93.088L27.5951 93.4808L25.9056 91.5169V91.1242L29.2846 93.4808L28.7215 89.1603C29.8334 88.9018 29.2846 81.7435 29.2846 80.1264H29.5662L30.1294 86.0181H29.8478V84.447H29.5662V89.9458L31.8189 86.8036C32.7878 87.8315 34.6108 88.0385 35.206 89.6367C36.672 93.5719 31.3869 92.1151 30.411 91.9097L30.6925 92.6953L29.8478 92.3025L29.5662 96.2303L31.2557 95.4447L30.1294 99.7652H30.411L33.2268 95.8375L32.382 97.8014L34.9163 98.5869V98.1941C33.7759 94.4431 38.8379 92.5802 40.5479 91.9097L38.6199 81.3047L37.1689 78.1625L37.4505 75.4131H37.1689C36.4799 76.4131 36.155 76.591 35.1979 76.1987L35.761 77.7698L34.9163 76.9842V78.1625L35.761 78.9481H34.6347L33.2268 75.8059L31.2557 76.9842L31.5373 74.6275L30.6925 75.0203L30.9741 74.2348L27.5951 76.9842L25.624 76.1987V76.5914H27.032V76.9842L25.3425 76.1987H25.0609C24.4878 77.5309 20.9031 77.4017 21.1187 76.1987L19.7108 76.9842V76.1987C17.2096 78.8601 14.079 90.3119 14.3607 94.6591L12.9528 95.0519L16.6134 77.7698H15.7686V77.377H17.1766V76.1987L15.4871 76.9842L16.3318 74.2348H16.0502L15.4871 74.6275L14.3607 76.1987V76.5914H15.2055V76.9842H5.91324C4.72079 76.9842 2.86401 77.4673 1.7638 76.7474C0.134706 75.681 0.395731 69.3482 1.15154 67.565C2.7081 63.8922 6.53281 66.1184 7.44564 61.2731C8.30954 56.6875 7.60274 50.6894 7.60274 45.9549C7.60274 42.9529 7.47667 40.2482 9.57492 38.496C11.5504 36.8464 13.6507 38.9229 14.3301 41.6347C15.34 45.6658 13.3068 53.2299 18.3029 52.9722C23.7045 52.6937 19.9327 40.7144 26.4688 41.2415L28.4399 31.0293L23.653 35.3499C23.7387 32.6015 28.0373 28.2188 29.5662 26.316C28.8868 24.021 29.4274 23.0344 30.9741 21.9955L30.6925 23.5666L31.2557 26.7088L32.1005 27.8871C37.0921 28.9931 35.3406 36.3084 35.814 41.2415C36.1246 44.4772 38.317 46.2463 40.5477 45.3916C42.7885 44.5334 42.8006 41.5334 42.8006 38.8849C42.8009 34.3686 41.5231 25.2935 44.5166 22.2716C50.1088 16.6264 49.0701 33.4021 54.6268 30.6223C57.7479 29.0611 56.3264 24.5375 57.9084 21.6439C59.2467 19.1961 61.5053 20.2559 63.0112 18.3056C64.5605 16.2995 63.8808 13.0747 65.6212 11.1666C70.9896 5.28143 71.2405 18.5077 71.2405 22.3883C71.2405 25.248 71.4362 28.2328 70.9589 31.0293L78.5616 25.1377C77.4936 18.8805 81.7593 13.2987 85.0381 19.6388C86.368 18.6617 89.8083 14.6688 91.2971 15.5271C92.6965 16.3341 92.8435 19.8433 93.204 21.6027C94.5026 27.9418 96.2338 34.7137 96.8645 41.2415C101.107 40.044 98.8156 33.7513 99.8893 29.8513C100.738 26.7694 102.763 26.6738 104.749 26.7088C104.699 21.1655 107.767 5.8244 113.707 12.4322C115.495 14.4213 115.54 18.1319 116.591 20.759C117.256 22.4213 118.918 22.2393 119.843 23.6505C120.996 25.4086 120.667 28.0014 121.762 29.8083C123.12 32.0495 125.486 31.2379 126.93 33.4287C128.653 36.0451 127.189 40.1528 129.81 42.0271C130.975 38.2402 132.342 36.904 135.16 38.0993C135.454 35.0348 137.076 33.6648 139.102 32.9932V32.6005L134.345 31.02L131.218 26.7088V25.1377L134.708 22.4725L136.851 18.4854L140.51 18.8533V20.4244L143.889 22.781C144.803 22.5686 145.482 22.9275 145.297 23.9594L146.423 25.1377C147.758 25.1427 151.35 26.5165 151.892 28.2914C152.334 29.7392 151.778 31.4802 152.387 32.8447C152.961 34.1307 154.158 34.9453 154.871 36.1354C153.054 37.3202 152.079 38.3418 152.055 41.2415H152.336V39.6704C153.183 40.0809 154.115 40.3256 154.84 41.1052C157.224 43.6681 155.438 47.9486 156.844 51.0437C158.103 53.8135 160.615 52.8002 162.132 55.0315C163.835 57.537 163.416 61.7692 164.726 64.8081C161.417 65.3227 161.32 71.7206 164.419 69.9641C166.206 68.9515 170.172 63.5567 170.544 60.8804C171.023 57.4247 169.748 52.9553 172.341 50.6717C174.208 49.0279 176.573 50.5829 177.213 53.418C178.138 57.5107 177.485 63.6691 177.387 67.9503C177.344 69.8333 177.5 71.7689 176.834 73.4492L178.524 76.9842H171.766H169.513L168.105 76.5914L168.387 75.4131H168.105L167.823 76.1987L167.26 74.6275L168.668 75.8059C170.163 74.7477 171.245 74.4072 172.892 75.0203V74.6275L172.61 73.0564L166.416 69.5214L166.697 70.6998C168.909 70.1546 170.395 71.4468 171.766 73.842C169.334 74.472 167.903 74.1931 165.852 72.2709L166.416 73.842L163.881 75.0203L164.163 76.1987L163.037 75.4131V75.8059V76.1987L163.6 75.8059V76.1987L162.755 80.1264C165.398 79.8342 166.375 83.2447 166.134 86.4108L162.755 83.6614L162.192 88.3747C166.004 90.8009 166.492 95.546 165.571 100.944L185 115.869V0H0Z" fill="#4CD4F0"/>
<path d="M32.382 27.8872C33.6601 35.6444 34.1853 43.9352 35.5848 51.8465C35.8998 53.627 37.3365 58.3631 36.4118 59.9468C36.0564 60.5556 35.5425 60.5092 35.1888 59.9468C33.8116 57.7578 32.5361 53.909 30.1291 53.5445C27.6723 53.1729 25.1401 57.9035 23.1332 57.378C21.9236 57.0614 22.8716 54.2971 23.0898 53.4176C24.1215 49.2589 25.4753 45.141 26.1872 40.8488C24.605 41.4211 22.9263 41.7262 22.1247 43.9969C21.0156 47.1387 22.0326 53.1733 18.0213 52.9141C13.3248 52.6101 15.3159 45.1485 14.3301 41.2431C13.6019 38.358 11.2577 36.816 9.29657 38.4957C7.38775 40.1308 7.60274 42.8288 7.60274 45.5621C7.60274 50.2978 8.30867 56.2935 7.44564 60.8804C6.49136 65.9523 2.71731 63.633 1.15154 67.1864C0.430747 68.8219 0.0198194 75.7352 1.53306 76.7529C2.60461 77.4736 4.46509 76.9842 5.63166 76.9842H15.2055V76.5915H14.3607V76.1987L16.0502 74.2348H16.3318L15.4871 76.9842L17.1766 76.1987V77.377H15.7686V77.7698H16.6134C16.2524 82.8217 14.4959 88.8956 12.9528 93.4808C14.6463 93.8387 14.9137 90.9832 15.3973 89.1603C16.5255 84.9077 17.5236 79.6139 19.7108 76.1987V76.9842L21.1187 76.1987C21.2914 77.6441 24.4954 77.2792 25.0609 76.1987H25.3425L27.032 76.9842V76.5915H25.624V76.1987L27.5951 76.9842L30.9741 74.2348L30.6925 75.0203L31.5373 74.6276L31.2557 76.9842L33.2268 75.8059L33.5084 77.377L35.761 77.7698L35.1979 76.1987C36.1671 76.7124 36.5847 76.6331 37.1689 75.4131H37.4505L37.1689 78.1626L38.5065 81.3048L40.5479 91.9097C37.798 92.7012 35.0757 93.909 34.3531 98.1942C35.1562 98.638 37.3449 98.3332 37.7918 98.9114C39.0812 100.58 35.5132 106.911 34.9163 108.406C37.863 109.024 40.8495 103.629 43.6453 102.554C44.9181 102.064 46.1371 103.57 47.3059 104.086L44.4901 89.1603H44.2085L44.4901 90.7314L41.6743 91.517L40.2664 78.5553C40.941 78.7812 40.9666 78.7419 41.1111 77.7698L39.9848 78.1626L39.7032 76.5915L41.3927 77.377L41.1111 76.1987H41.3927L43.3638 86.0181H43.6453C43.0501 76.4944 40.1551 66.1632 38.2953 56.9526C46.1672 52.9557 53.8265 44.7703 61.1035 38.9437C63.8985 36.7059 68.7493 34.31 70.7891 30.8218C71.5967 29.4404 71.2405 26.804 71.2405 25.1377C71.2405 20.8457 72.587 11.2529 68.4246 10.1037C63.9027 8.85521 64.9854 16.0614 62.499 18.5969C60.8965 20.231 58.6455 19.1899 57.5716 22.0125C56.4101 25.0654 57.4595 29.2034 54.3455 30.6084C50.5275 32.331 50.6126 25.9637 49.2748 23.2466C48.0414 20.7423 45.2318 20.627 43.8025 22.8692C41.6509 26.2449 42.8017 34.6397 42.8006 38.8849C42.7998 41.6218 42.5196 44.5468 40.2664 45.3916C38.2069 46.1634 36.2428 44.0248 35.8568 41.2416C35.1962 36.4791 37.3049 28.9778 32.382 27.8872ZM108.973 11.3905V11.7833H112.915L108.973 11.3905Z" fill="#ABDDE8"/>
<path d="M110.099 11.3905V11.7838H111.788L110.099 11.3905Z" fill="#F1A844"/>
<path d="M108.409 11.7833L107.001 14.5328H107.283L108.691 12.1761L108.409 11.7833Z" fill="#ABDDE8"/>
<path d="M108.691 16.8894H108.973C110.449 15.1477 111.438 15.1477 112.915 16.8894C119.364 11.3841 102.913 9.4967 108.691 16.8894Z" fill="#DC4F37"/>
<path d="M113.478 12.1761V12.5689L114.323 12.9617L113.478 12.1761Z" fill="#ABDDE8"/>
<path d="M114.323 13.3544L114.604 14.5328H114.886L114.323 13.3544Z" fill="#ABDDE8"/>
<path d="M26.4688 25.1377H26.7504C26.7504 18.7974 29.4001 17.2866 33.2268 14.5327V19.6388H33.79V13.7472C28.8301 14.9897 26.4688 17.8769 26.4688 25.1377Z" fill="#264258"/>
<path d="M107.002 14.5327C106.659 17.3054 103.265 24.6753 105.2 27.1119C106.855 29.1948 110.408 27.88 111.507 30.2438H111.788V29.0655C112.566 29.0424 113.291 28.9663 114.041 28.6518C119.721 26.2696 115.586 20.2002 114.886 14.5327H114.604L113.196 16.8894H112.915L111.225 15.3183V15.7111L112.633 17.2822H109.254L110.662 15.7111V15.3183L108.973 16.8894H108.691L107.002 14.5327Z" fill="#F1A844"/>
<path d="M65.6088 97.4086V99.3725H65.8904V72.6637C63.4987 74.6723 59.1474 79.9493 56.3166 79.9088C54.6902 79.8856 52.8917 77.7819 51.5297 76.7018C47.4673 73.4802 44.1204 71.7862 42.8431 65.2009C42.5534 63.7072 41.5169 60.53 42.0156 59.0653C42.7412 56.9345 46.1593 55.2813 47.5875 54.1442C52.1982 50.4726 56.7933 46.7561 61.3851 43.0389C62.791 41.9006 65.2208 38.9167 66.8974 39.0173C70.3321 39.2234 73.6368 47.0354 77.1537 46.0515C80.6167 45.0829 84.8125 40.1543 87.8539 37.6277C90.0494 35.8038 91.7778 33.997 94.0445 36.6576C97.2695 40.443 97.1461 45.3225 97.1461 50.6682V71.8781L102.215 67.9503C99.6427 55.3076 97.1563 42.5958 94.8577 29.851C94.2413 26.4331 93.5323 23.0472 92.8897 19.6388C92.6507 18.371 92.551 16.486 91.7107 15.6722C90.5686 14.5663 89.1134 16.2243 88.1355 16.9997C85.2098 19.3193 82.3318 21.7496 79.4064 24.0697C69.3277 32.0627 59.329 40.2533 49.277 48.3115L41.6743 54.4306C40.7673 55.1556 39.1541 55.9506 38.7582 57.4279C38.0109 60.2146 40.1982 66.6624 40.7253 69.5214C42.4416 78.8326 44.2161 88.1603 46.098 97.4086C47.037 102.023 47.8331 106.583 51.8113 107.687C53.135 108.054 54.6688 106.235 55.7534 105.374C59.0204 102.784 62.5514 100.454 65.6088 97.4086Z" fill="#264258"/>
<path d="M106.72 14.9255L106.438 16.8894H106.72V14.9255ZM114.886 14.9255L115.167 16.8894H115.449L114.886 14.9255ZM109.254 17.2822H112.633C111.794 15.1097 110.093 15.1097 109.254 17.2822ZM78.2801 24.7449L85.0381 19.6389C83.9083 16.339 80.7439 15.3614 79.0271 18.5017C78.0568 20.2764 78.2801 22.649 78.2801 24.7449ZM30.9741 16.8894V17.675H31.5373V16.8894H30.9741ZM106.157 16.8894V18.0677H106.438L106.157 16.8894ZM115.449 16.8894V18.0677H115.731L115.449 16.8894ZM137.694 17.675V18.0677H138.82L137.694 17.675Z" fill="#ABDDE8"/>
<path d="M135.16 20.4244L139.102 18.4605C137.623 17.6518 136.119 18.863 135.16 20.4244Z" fill="#F1A844"/>
<path d="M28.7215 18.8533V19.6398L29.2846 18.8533H28.7215Z" fill="#ABDDE8"/>
<path d="M136.849 21.2099H138.82L138.539 20.4244L139.384 20.8172L139.947 19.2461C138.607 19.0916 137.568 19.5701 136.849 21.2099Z" fill="#F1A844"/>
<path d="M116.012 19.246L116.294 21.2099H116.575L116.012 19.246Z" fill="#ABDDE8"/>
<path d="M136.568 21.2099C136.568 25.3334 136.275 27.8047 139.384 29.4582L139.102 23.1738L141.636 21.2099V20.8171L138.257 22.3882V21.9955L140.791 19.6388L136.568 21.2099Z" fill="#264258"/>
<path d="M90.1065 20.0316L89.8249 21.2099C87.2701 20.022 83.2179 27.7434 81.3775 27.1016V27.8871L77.4353 30.439L67.5799 38.0993V38.8849C69.8264 40.5353 74.5784 46.3469 77.1537 45.6281C82.3444 44.1795 88.0214 32.5771 93.4855 35.3499C93.1535 33.7165 92.7568 28.5384 91.5144 28.2799C91.8605 25.7973 91.3111 21.9549 90.1065 20.0316Z" fill="#4CD4F0"/>
<path d="M135.723 20.0316L135.441 23.1738L134.878 22.7811C134.88 25.0708 134.9 26.563 136.568 27.4944L136.849 20.4244L135.723 20.0316Z" fill="#DC4F37"/>
<path d="M140.51 20.8181H141.355L141.073 20.0316L140.51 20.8181Z" fill="#ABDDE8"/>
<path d="M135.16 20.4244V23.1738H135.441L135.16 20.4244Z" fill="#264258"/>
<path d="M138.82 21.6027V21.9955L139.665 21.6027V21.9955L138.539 22.3883V22.7811L140.228 21.21H141.355L138.82 21.6027Z" fill="#F1A844"/>
<path d="M31.2557 21.21L30.9741 21.9965H31.5373L31.2557 21.21Z" fill="#264258"/>
<path d="M105.03 21.21L104.749 23.1738H105.03V21.21Z" fill="#ABDDE8"/>
<path d="M139.665 23.9594L143.044 21.9955C141.625 20.9744 140.138 21.8448 139.665 23.9594Z" fill="#F1A844"/>
<path d="M141.918 21.21V21.6032H143.044L141.918 21.21Z" fill="#ABDDE8"/>
<path d="M138.257 21.9955V22.3887L139.665 21.9955H138.257Z" fill="#ABDDE8"/>
<path d="M143.044 21.6027L142.763 22.3893H143.326L143.044 21.6027Z" fill="#264258"/>
<path d="M28.7215 21.9955V22.782H29.2846V21.9955H28.7215Z" fill="#ABDDE8"/>
<path d="M29.5662 27.4944H31.2557L30.6926 23.5666L30.9741 21.9955C28.6821 23.0286 29.1641 24.7623 29.5662 27.4944Z" fill="#264258"/>
<path d="M116.857 21.9955C117.548 27.1926 115.385 28.8362 111.788 29.0655L111.507 30.6366L113.759 30.2438C113.759 34.0727 114.265 38.6848 113.649 42.4199C113.335 44.3178 111.953 45.1041 111.596 46.8225C110.834 50.4997 111.275 56.6631 111.523 60.4801C111.737 63.7598 118.534 64.5516 115.864 69.8926C114.298 73.0242 110.427 73.1845 108.128 71.886C106.787 71.1291 104.781 69.3093 105.875 67.1648C105.884 62.8768 109.289 64.2476 110.211 61.5469C111.445 57.9326 110.38 50.3606 110.38 46.3476C105.461 45.5833 106.316 34.4963 106.72 29.4582L110.38 31.0293V29.0655C107.401 28.9769 103.186 24.3353 100.589 27.9765C97.8489 31.8201 101.447 38.1011 97.1461 41.2415L100.771 60.4876L101.834 67.5163L97.1461 71.8781V49.0971C97.1461 44.672 97.1661 40.2698 94.5857 37.0504C92.1891 34.0606 90.2727 35.6069 87.8539 37.5411C84.6675 40.0887 80.5471 45.1155 76.9524 46.165C73.6221 47.1379 70.1479 38.9631 66.7351 39.0809C64.4971 39.1582 61.3155 42.9678 59.414 44.5397C53.5444 49.3913 47.3701 53.676 41.6743 58.9165C42.2828 62.1887 42.5917 67.9154 44.1319 70.5466C45.6283 73.1032 48.9293 74.7352 50.9665 76.364C52.5634 77.6413 54.6519 80.0447 56.5982 79.7992C59.4219 79.4426 63.5304 74.8349 65.8904 72.6636C65.8904 83.912 63.5482 100.024 69.551 108.799L67.0167 107.228C67.6984 108.709 68.6313 109.37 69.8326 108.799V110.37L72.93 111.549C73.2051 113.457 74.4995 113.72 75.7458 113.905L71.8036 117.047V117.833C74.5384 119.59 75.8077 117.705 78.28 115.869C78.7911 118.028 80.2103 118.288 81.659 118.618C80.4651 119.988 77.9568 122.859 76.309 122.441C73.8637 121.821 72.1553 118.061 69.551 118.226V118.618L75.6557 127.897L79.1248 132.758H79.4064L73.7747 122.939L81.3775 130.696L86.1644 127.26L86.446 127.652L83.6301 135.115C85.2461 135.266 86.7647 133.522 88.1354 132.425C91.4291 129.787 94.6927 127.077 97.9909 124.451C110.273 114.672 122.351 103.001 135.16 94.6591C135.316 98.8937 129.842 101.424 127.557 103.296C119.148 110.185 110.532 116.624 102.215 123.725V124.117L110.38 118.226V118.618C103.455 122.135 96.7922 129.436 90.3881 134.557C88.611 135.978 84.4766 138.123 83.8165 141.074C82.9695 144.86 88.1954 146.649 89.5434 143.756H89.8249C88.5297 147.595 86.1492 146.605 83.6301 146.898L84.7565 144.935L83.9117 143.756C83.5017 148.878 76.5694 151.79 73.7747 154.361L74.0563 155.147C71.9602 156.437 71.5353 158.009 71.8036 161.038L68.4246 155.932L65.0456 157.896C65.7949 163.151 69.1233 165.689 72.3668 162.609C70.6458 166.725 68.1112 166.068 65.8946 162.996C62.6829 158.546 61.7342 152.788 58.9834 148.094C57.5429 145.635 55.1948 144.753 53.7823 142.185L54.3455 142.578L52.3744 137.472H52.0928L52.3744 139.828L47.3059 139.488L34.3531 129.616C33.1572 135.542 25.8504 135.15 24.4977 129.616H24.7793C26.4686 133.947 33.4245 134.627 34.0715 128.831H33.7899C32.3218 133.128 27.2013 133.663 25.2688 129.601C23.5828 126.056 24.2439 120.898 24.7793 117.047C19.4519 116.661 20.8078 110.565 25.0609 109.192L21.1187 100.158C15.8202 102.674 10.7561 106.395 5.91324 110.26C4.2392 111.596 1.23729 113.475 0.289405 115.906C-1.16938 119.647 -4.18313e-07 128.119 -4.18313e-07 132.366V174H185V132.366C185 128.119 186.169 119.648 184.71 115.906C183.825 113.634 181.2 111.977 179.65 110.708C175.123 107.004 170.416 103.757 165.571 100.944C166.647 95.8642 166.102 90.141 162.192 88.3747C163.073 86.6653 163.099 85.2836 162.755 83.2686H162.473L161.629 88.7675C162.707 89.4199 163.834 89.8099 164.605 91.1469C166.326 94.1316 166.073 102.183 163.851 104.616C161.206 107.512 156.987 105.941 156.142 101.336C155.836 99.669 155.725 97.9443 155.715 96.2302L151.773 95.8115L146.427 101.153L143.324 97.3496L131.499 87.9819C131.499 89.1952 128.345 87.9509 127.557 87.5236C124.707 85.9776 118.701 82.2219 117.138 78.5553H116.294L116.575 76.9842L117.138 78.1625L118.265 77.377C116.71 72.1165 116.954 67.7182 116.853 62.0587C116.823 60.3811 116.121 58.1659 116.828 56.6435C117.759 54.638 120.235 53.5358 121.644 52.2393V45.9548C122.762 45.9556 123.225 45.4435 123.615 43.991C120.409 44.2914 121.428 41.8845 121.081 38.4921C121.932 38.8847 123.105 38.9698 123.775 39.8546C125.553 42.205 126.097 47.3948 128.965 47.526L130.091 41.6343C127.235 40.6806 128.566 36.3743 127.348 33.7961C126.166 31.2934 124.018 32.1074 122.501 30.4662C119.771 27.5138 121.328 22.1421 116.857 21.9955Z" fill="#ABDDE8"/>
<path d="M142.481 21.9955L141.918 22.3887V22.782L142.481 21.9955Z" fill="#DC4F37"/>
<path d="M143.326 21.9955V23.9594L144.734 22.3883L143.326 21.9955Z" fill="#ABDDE8"/>
<path d="M134.597 22.3882L132.907 23.9594V24.3521L134.597 22.3882Z" fill="#ABDDE8"/>
<path d="M141.073 23.9594V24.3522L142.481 25.1377C142.481 23.1707 143.38 25.1678 143.607 25.9233H143.889V22.7811L141.073 23.9594Z" fill="#F1A844"/>
<path d="M134.597 22.7811L131.499 25.5305V25.9233L144.17 36.0449L148.957 39.4093L154.307 35.7427V34.9571C151.312 32.9634 152.512 24.4053 148.12 27.3862C147.607 27.7339 147.164 28.2099 146.705 28.6727L147.268 36.1355L138.257 28.7545L135.33 26.1824L134.597 22.7811Z" fill="#F1A844"/>
<path d="M141.355 22.7811L141.073 23.9594L139.384 23.5666L139.102 29.851L140.791 31.0294C140.791 28.9111 140.438 23.0506 141.918 23.5666L141.355 22.7811Z" fill="#DC4F37"/>
<path d="M144.734 22.7811L143.326 23.9594V24.3522L144.734 22.7811Z" fill="#264258"/>
<path d="M143.607 24.3521V24.7449L145.578 23.5666L143.607 24.3521Z" fill="#ABDDE8"/>
<path d="M135.16 23.5666V25.1377H135.441L135.16 23.5666Z" fill="#264258"/>
<path d="M145.578 23.5666L144.17 24.7449V25.1377L145.86 23.9594L145.578 23.5666Z" fill="#264258"/>
<path d="M141.355 23.9594L141.073 24.7459H141.636L141.355 23.9594ZM142.763 23.9594L142.199 24.3526V24.7459L142.763 23.9594Z" fill="#ABDDE8"/>
<path d="M143.326 25.9233V26.3161L146.423 24.3522L143.326 25.9233Z" fill="#ABDDE8"/>
<path d="M140.791 24.7449C140.791 29.3136 140.707 31.7256 144.17 33.386L143.889 27.1016L146.423 24.3522L143.326 26.7088L143.607 25.5305L142.481 25.9233L143.326 24.7449H140.791Z" fill="#264258"/>
<path d="M143.889 27.1016V27.4944L145.578 28.2799H146.423L147.268 27.4944V26.7088H148.394C146.816 24.5731 145.555 25.7326 143.889 27.1016Z" fill="#F1A844"/>
<path d="M141.636 25.5305V27.1016H141.918L141.636 25.5305Z" fill="#4CD4F0"/>
<path d="M147.831 26.317H148.676L148.394 25.5305L147.831 26.317Z" fill="#ABDDE8"/>
<path d="M131.218 25.9233C131.916 27.469 133.389 30.7236 134.609 31.4128C135.711 32.0354 136.855 31.3135 137.976 32.0244C140.385 33.5533 142.755 35.7266 145.014 37.6536C146.613 39.0175 146.879 42.4073 148.958 42.6065C151.53 42.8527 151.425 40.1587 152.707 38.2482C153.446 37.1485 154.366 36.9002 154.589 35.3499L147.831 40.0632L147.549 38.8849L146.986 39.2777L142.199 34.6189L131.218 25.9233Z" fill="#264258"/>
<path d="M145.578 27.1016V27.4944L147.549 26.3161L145.578 27.1016Z" fill="#DC4F37"/>
<path d="M31.5373 26.316L31.8189 27.4944H32.1004L31.5373 26.316Z" fill="#ABDDE8"/>
<path d="M142.481 26.316V31.8149H142.763L142.481 26.316Z" fill="#4CD4F0"/>
<path d="M146.423 34.9571C146.423 30.8108 146.363 29.1078 148.957 26.7088C145.919 26.0036 143.396 33.5555 146.423 34.9571Z" fill="#264258"/>
<path d="M149.802 26.316V26.7088L151.773 27.4944L149.802 26.316Z" fill="#ABDDE8"/>
<path d="M31.5373 26.7088L29.003 27.1016V28.6727C29.9269 28.3649 31.8307 28.5314 31.5373 26.7088Z" fill="#F1A844"/>
<path d="M28.7215 27.4944C27.3396 29.668 23.3307 32.2338 23.653 35.3499L28.4399 31.0294L26.7513 39.2777L22.2451 56.9526L23.653 57.7382C27.4225 52.0673 33.2583 52.53 35.1979 60.4876L36.8874 60.0948L32.9125 35.7427L32.1005 27.4944H31.8189L29.2846 28.2799L28.4399 29.4583L29.2846 27.8872L28.7215 27.4944Z" fill="#264258"/>
<path d="M29.8478 27.4944V27.8872H30.9741L29.8478 27.4944Z" fill="#DC4F37"/>
<path d="M144.17 27.4944L143.889 33.7788L145.297 34.5644L145.578 27.4944H144.17Z" fill="#DC4F37"/>
<path d="M28.7214 28.2799L28.4399 29.4583L29.2846 28.6727L28.7214 28.2799Z" fill="#ABDDE8"/>
<path d="M29.8478 28.2799V28.6727H31.2557L29.8478 28.2799ZM146.423 28.6727L145.86 35.3499L147.268 36.1354C147.268 33.8944 147.851 30.1091 146.423 28.6727ZM110.38 29.0655V31.0293L111.507 29.0655H110.38Z" fill="#DC4F37"/>
<path d="M151.773 29.0655V30.6366H152.054L151.773 29.0655Z" fill="#ABDDE8"/>
<path d="M106.72 29.4583C105.968 34.2993 105.646 45.9859 110.38 46.3476V35.3499L109.929 30.8721L106.72 29.4583Z" fill="#4CD4F0"/>
<path d="M136.286 29.851L137.412 30.6375V30.2443L136.286 29.851Z" fill="#DC4F37"/>
<path d="M111.225 30.2438L110.38 31.0293V54.5959C110.38 57.7354 110.938 61.9974 109.817 64.8081H112.07L111.507 56.167V38.4921L111.225 30.2438Z" fill="#264258"/>
<path d="M111.507 30.6366V45.9548C115.147 44.1869 113.759 34.5685 113.759 30.2438L111.507 30.6366Z" fill="#4CD4F0"/>
<path d="M151.773 31.0294V32.6005H152.054L151.773 31.0294Z" fill="#ABDDE8"/>
<path d="M135.16 38.0993L134.315 37.7065V38.0993L142.763 44.7765C141.856 41.793 142.895 37.7054 141.431 35.0862C139.302 31.2751 135.37 33.74 135.16 38.0993Z" fill="#ABDDE8"/>
<path d="M90.3881 33.7788V34.1721H92.3592L90.3881 33.7788Z" fill="#264258"/>
<path d="M141.636 34.9571C142.019 37.5486 141.68 41.2058 142.369 43.5569C143.117 46.1104 147.461 48.5868 149.239 49.4898C149.239 47.7431 149.62 44.965 149.069 43.3684C148.706 42.3173 147.708 42.0039 147.191 41.108C145.499 38.1768 144.279 36.5001 141.636 34.9571Z" fill="#4CD4F0"/>
<path d="M29.5662 35.7427L24.4977 55.3815C25.861 54.7432 27.7581 53.8964 28.7541 52.3874C30.6036 49.5853 30.5872 39.1365 29.5662 35.7427Z" fill="#ABDDE8"/>
<path d="M132.344 37.3138V37.707H134.033L132.344 37.3138Z" fill="#ABDDE8"/>
<path d="M128.965 47.526L126.994 47.1332C127.577 51.4946 128.21 55.3202 124.178 56.167V54.9887C125.79 54.7845 127.059 53.9345 126.994 51.4537L117.42 55.3815V55.7743C119.796 57.2362 120.695 59.7358 120.236 63.237L122.489 61.6659C123.281 66.3152 125.882 68.924 129.247 69.1287V68.7359C126.778 68.4543 122.719 65.9892 122.952 61.6663C123.115 58.6592 128.095 54.6639 130.091 54.4993C132.07 54.3359 133.698 57.8729 135.16 59.3093C134.55 58.1015 133.383 56.8666 133.169 55.3815C132.973 54.0288 133.646 52.3375 133.914 51.061C134.659 47.5114 135.274 40.9937 138.82 41.6343C137.602 40.031 134.374 36.9266 132.626 37.6071C130.057 38.6073 129.299 44.3567 128.965 47.526Z" fill="#F1A844"/>
<path d="M146.986 38.4921V39.2786L147.55 38.4921H146.986Z" fill="#DC4F37"/>
<path d="M121.081 38.8849C121.318 41.9863 120.601 44.8936 123.615 43.5982L121.925 45.9549C121.782 47.5794 121.183 51.4663 122.096 52.7334C123.49 54.6663 124.995 51.8599 126.377 51.9651C127.822 52.0755 125.998 54.3194 125.587 54.6136C125.055 54.993 124.636 55.2436 124.178 55.7743C127.926 56.2264 127.441 52.6384 127.054 49.0971C126.552 44.5059 124.783 39.2965 121.081 38.8849Z" fill="#264258"/>
<path d="M122.489 38.8849V39.2782H123.333L122.489 38.8849Z" fill="#4CD4F0"/>
<path d="M147.549 38.8849L147.831 40.0632L148.676 39.6704V39.2777L147.549 38.8849Z" fill="#DC4F37"/>
<path d="M152.336 39.6704L149.409 43.324L148.957 49.8826L158.531 57.6812L162.465 61.3458L162.755 65.5937L164.726 64.8081C163.879 61.9581 163.68 56.7821 162.132 54.6855C160.546 52.5386 158.159 53.6478 156.844 50.6623C155.475 47.5534 157.343 42.7435 154.577 40.6339C153.897 40.1154 153.079 39.9414 152.336 39.6704Z" fill="#ABDDE8"/>
<path d="M130.091 40.0632V41.2416H130.372L130.091 40.0632Z" fill="#ABDDE8"/>
<path d="M70.6773 40.456V40.8488L71.8037 41.6343V41.2415L70.6773 40.456Z" fill="#264258"/>
<path d="M80.8143 41.2415V42.4198H81.0959L80.8143 41.2415Z" fill="#264258"/>
<path d="M122.489 61.6659L120.236 63.237C120.586 61.18 120.577 59.118 119.516 57.4294C118.93 56.4966 117.561 55.2797 116.865 56.6906C116.047 58.3493 117.138 62.7802 117.138 64.8081C117.139 67.9209 116.525 72.5709 117.549 75.4127C118.641 78.4453 121.346 79.6189 123.333 81.1943C127.95 84.8534 132.527 88.6115 137.131 92.3024C139.632 94.308 143.563 99.1238 146.423 99.5441C147.531 99.7067 148.621 98.3072 149.521 97.5755C151.679 95.819 153.866 94.1222 155.997 92.3024C155.961 94.7447 155.805 96.9223 156.011 99.3724C156.451 104.609 160.755 108.835 164.084 104.324C167.268 100.011 166.016 89.6964 161.347 89.1602C161.587 91.7408 162.096 92.6713 163.881 93.4808V94.2663C161.47 95.5613 159.816 95.5613 157.405 94.2663V93.4808C160.107 92.1669 159.499 88.5043 160.111 85.2325C160.327 84.0757 161.067 82.615 160.837 81.3872C160.612 80.1912 159.54 79.7144 158.813 79.3408C158.114 82.8024 155.601 83.1001 153.463 84.0541L154.589 79.7336L147.831 84.8397C148.361 81.6963 147.538 78.3133 145.015 77.7697C146.806 75.0639 150.036 74.4488 151.568 71.4444C154.053 66.5728 152.824 60.1242 156.842 56.5598C153.059 50.8484 145.871 47.2757 141.073 43.2843C139.194 41.7211 136.973 40.2109 135.566 43.6347C134.619 45.9383 132.573 53.2035 133.103 55.7742C133.56 57.9903 136.757 60.2071 135.797 62.8426C132.768 71.1585 124.52 69.9704 122.489 61.6659Z" fill="#DC4F37"/>
<path d="M72.0852 41.6343V42.0275H72.93V41.6343H72.0852Z" fill="#264258"/>
<path d="M121.644 45.9548V47.5259H121.925L121.644 45.9548Z" fill="#4CD4F0"/>
<path d="M30.9741 47.1332L31.2557 49.4898H31.5373L30.9741 47.1332Z" fill="#4CD4F0"/>
<path d="M72.0852 47.9187V48.7052H72.6484L72.0852 47.9187Z" fill="#F1A844"/>
<path d="M126.994 47.9187V50.2754H127.275L126.994 47.9187Z" fill="#DC4F37"/>
<path d="M33.2268 49.8826L31.8189 51.4537C31.762 53.9797 33.2502 55.592 34.6347 56.9526L33.2268 49.8826Z" fill="#ABDDE8"/>
<path d="M162.755 69.9142V74.2348C165.176 72.3541 166.479 70.3329 167.542 66.772H167.823L166.979 70.307L172.61 73.0564L172.892 74.6275V75.0203C171.346 74.2768 170.007 74.5073 168.668 75.8059L167.26 74.6275C167.497 75.3337 167.702 76.2411 168.105 75.4131H168.387L168.105 76.5914L169.513 76.9842V76.1986C171.963 77.9767 175.809 76.9842 178.524 76.9842L176.834 73.4492C177.618 71.8871 177.377 69.8034 177.394 67.9444C177.434 63.6078 178.317 56.6619 177.113 52.6379C176.397 50.2428 174.291 49.3044 172.615 50.2789C169.418 52.1379 171.254 57.7633 170.399 61.2727C169.79 63.7696 167.915 64.9534 166.676 66.7791C165.486 68.5332 164.626 70.3608 162.755 69.9142Z" fill="#ABDDE8"/>
<path d="M29.003 51.061V52.2393H29.2846L29.003 51.061ZM31.5373 51.061V52.6321H31.8189L32.1004 51.061H31.5373Z" fill="#4CD4F0"/>
<path d="M90.1065 56.167V56.5598L95.7382 52.2393L90.1065 56.167Z" fill="#264258"/>
<path d="M87.5723 52.6321C83.2134 57.0492 78.1539 60.4754 73.4931 64.2488C71.6068 65.776 68.7882 66.8659 68.7062 70.307C73.9671 67.6204 79.062 62.283 83.9117 58.3572C85.414 57.1408 88.4494 55.6667 87.5723 52.6321Z" fill="#DC4F37"/>
<path d="M87.8539 52.6321V54.9887H88.1346L87.8539 52.6321Z" fill="#F1A844"/>
<path d="M92.9223 55.3815V55.7743L94.8934 54.5959L92.9223 55.3815Z" fill="#264258"/>
<path d="M129.81 54.4282C127.762 54.9098 123.63 57.999 122.951 60.8863C121.93 65.2315 126.614 69.2665 129.247 68.5772C131.102 68.091 135.595 65.3301 135.98 62.4456C136.395 59.3474 131.905 53.9357 129.81 54.4282Z" fill="#ABDDE8"/>
<path d="M36.0426 54.9887V56.167H36.3242L36.0426 54.9887Z" fill="#4CD4F0"/>
<path d="M95.4566 54.9887L88.6987 60.4876V60.8804L95.7382 55.3815L95.4566 54.9887Z" fill="#264258"/>
<path d="M62.793 56.9526H63.9193V55.7743L62.793 56.9526Z" fill="#F1A844"/>
<path d="M145.015 77.7698C147.384 78.6979 148.232 81.6842 147.831 84.8397L157.968 76.9842L157.405 74.6275L157.686 73.0564L158.531 70.6998L155.715 65.9865H159.094L159.376 64.0226L155.715 58.9165C157.814 58.3811 159.475 58.7645 160.784 61.2731H162.755C162.022 60.1663 161.166 59.4947 160.221 58.7708C159.327 58.0862 158.165 56.7205 157.123 56.6388C153.145 56.3277 153.155 67.8317 151.568 71.0757C149.997 74.2878 146.456 74.4814 145.015 77.7698Z" fill="#F1A844"/>
<path d="M87.5723 58.1314V58.5247L88.9802 57.7382L87.5723 58.1314ZM89.5434 58.1314V58.5247L90.9513 57.7382L89.5434 58.1314Z" fill="#264258"/>
<path d="M116.294 57.3453V58.5237H116.575L116.294 57.3453Z" fill="#F1A844"/>
<path d="M95.4566 58.1309L88.9802 64.0226L95.7382 58.5237L95.4566 58.1309Z" fill="#264258"/>
<path d="M97.7093 58.1309V67.5576L99.3988 66.3792L97.7093 58.1309ZM36.6058 58.5237V59.702H36.8874L36.6058 58.5237Z" fill="#4CD4F0"/>
<path d="M155.997 58.9165C156.304 59.9302 156.676 60.7826 157.161 61.6604C160.29 67.3188 162.607 60.5383 158.531 58.8957C157.665 58.5461 156.865 58.7016 155.997 58.9165Z" fill="#4CD4F0"/>
<path d="M86.4459 58.9165L82.7854 62.0587V62.4515L86.4459 58.9165ZM87.5723 59.7021V60.0948L88.9802 59.3093L87.5723 59.7021Z" fill="#264258"/>
<path d="M34.9163 59.3093V60.4876H35.1971L34.9163 59.3093Z" fill="#4CD4F0"/>
<path d="M42.8006 59.702V60.0953H43.9269L42.8006 59.702Z" fill="#F1A844"/>
<path d="M86.1644 60.8803V61.2731L87.5723 60.4876L86.1644 60.8803ZM90.9513 60.0948L89.2618 61.6659V62.0587L90.9513 60.0948Z" fill="#264258"/>
<path d="M35.1979 60.4876V60.8809H36.3242L35.1979 60.4876Z" fill="#4CD4F0"/>
<path d="M58.5693 78.1626C60.3165 76.811 65.5024 74.0109 65.8487 71.0757C66.239 67.7681 65.0043 63.8608 63.0704 61.9209C62.1248 60.9723 60.5708 60.0874 59.612 61.4766C57.3404 64.7681 59.3008 73.8774 58.5693 78.1626Z" fill="#F1A844"/>
<path d="M116.857 60.4876V73.842H117.138L116.857 60.4876Z" fill="#F1A844"/>
<path d="M161.065 61.2732V64.8081C160.016 64.4994 159.513 64.5391 159.094 65.9865L161.065 68.7359H161.347L161.065 66.3792C162.834 67.6495 163.946 60.5976 161.065 61.2732Z" fill="#DC4F37"/>
<path d="M87.5723 61.2731L85.3197 63.237V63.6298L87.8539 61.6659L87.5723 61.2731Z" fill="#264258"/>
<path d="M110.099 62.0587C108.826 62.7288 107.256 62.9594 106.356 64.5446C103.833 68.9873 109.677 70.9433 111.788 70.6315C113.73 70.3451 117.48 68.0823 115.522 64.5646C114.612 62.9303 112.845 62.5846 111.507 62.0587C111.57 63.2221 112.416 64.8423 112.18 65.9024C111.831 67.4775 109.889 67.2516 109.576 65.7543C109.298 64.4201 110.527 63.6078 110.099 62.0587Z" fill="#F1A844"/>
<path d="M86.7275 63.6298V64.0226L88.1354 63.237L86.7275 63.6298ZM84.4748 68.7359V69.1287L92.0776 63.237C89.9387 62.9566 86.3102 67.1691 84.4748 68.7359ZM93.4855 62.8442L87.0091 68.3431V68.7359C88.1878 68.0532 93.7018 64.5485 93.4855 62.8442Z" fill="#264258"/>
<path d="M82.2222 64.0231V64.4164L83.6301 63.6298L82.2222 64.0231Z" fill="#264258"/>
<path d="M160.502 64.0226V64.8091H161.066V64.0226H160.502Z" fill="#264258"/>
<path d="M82.7854 65.2009V65.5937L84.1933 64.8081L82.7854 65.2009ZM84.7564 65.2009V65.5937L86.1643 64.8081L84.7564 65.2009ZM86.7275 65.2009V65.5937L88.1354 64.8081L86.7275 65.2009Z" fill="#264258"/>
<path d="M109.536 64.4153L109.254 65.9865H112.352H112.633L112.352 64.4153H109.536Z" fill="#DC4F37"/>
<path d="M112.07 65.2009L109.536 65.5937C110.134 66.8816 112.421 67.3781 112.07 65.2009Z" fill="#264258"/>
<path d="M155.997 65.9864C156.993 68.9841 158.421 70.688 160.784 70.6998L161.629 80.1264C159.605 79.0286 158.185 77.5074 158.25 74.2347H157.968C157.275 78.2018 159.951 78.5231 160.669 81.3872C160.968 82.5777 160.22 84.0801 160.045 85.2325C159.529 88.6304 159.894 91.7266 157.405 93.4808V94.2663C159.513 95.8076 161.774 95.8076 163.881 94.2663V93.4808C160.682 91.438 160.702 85.833 161.91 81.6975L166.134 86.4108C166.674 82.5451 165.102 79.4595 162.192 80.1264C161.785 77.2002 161.558 74.155 164.444 75.4131V75.0203L163.6 74.6275V73.842H171.766C170.467 70.5108 168.567 71.0859 166.416 69.9142L161.629 75.0203L161.347 66.3792H161.066L161.347 70.307C160.463 66.519 158.931 65.0151 155.997 65.9864Z" fill="#264258"/>
<path d="M82.7854 66.772V67.1648L84.1933 66.3792L82.7854 66.772Z" fill="#264258"/>
<path d="M90.3881 70.307V70.6998L95.7382 66.772L90.3881 70.307Z" fill="#264258"/>
<path d="M110.099 66.772V67.1652H111.788L110.099 66.772Z" fill="#DC4F37"/>
<path d="M83.3486 67.9508V68.3441L84.7565 67.5576L83.3486 67.9508Z" fill="#264258"/>
<path d="M105.312 67.1648C105.48 74.362 115.071 74.4956 116.575 68.3431C114.081 70.2972 106.456 75.0981 105.875 67.1648H105.312Z" fill="#4CD4F0"/>
<path d="M105.594 67.5576C106.973 73.1688 114.913 73.1727 116.294 67.5576H116.012C113.1 72.6118 108.723 71.2076 105.594 67.5576Z" fill="#264258"/>
<path d="M87.8539 69.1286V69.5214L89.2618 68.7359L87.8539 69.1286Z" fill="#264258"/>
<path d="M93.4855 69.5219V69.9152L94.8934 69.1287L93.4855 69.5219Z" fill="#264258"/>
<path d="M161.065 68.7359V69.9142H161.346L161.065 68.7359Z" fill="#F1A844"/>
<path d="M166.697 68.7359L167.26 69.5224V68.7359H166.697Z" fill="#4CD4F0"/>
<path d="M95.4566 69.5214L89.5434 74.2347V74.6275L95.7382 69.9142L95.4566 69.5214Z" fill="#264258"/>
<path d="M81.9407 70.6997V71.0925L83.3486 70.307L81.9407 70.6997ZM83.9118 70.6997V71.0925L85.3197 70.307L83.9118 70.6997Z" fill="#264258"/>
<path d="M161.629 75.0203C162.795 73.8471 162.473 71.7528 162.473 69.9142C160.699 71.1071 160.744 72.8153 161.629 75.0203Z" fill="#DC4F37"/>
<path d="M162.473 69.9142V74.2348H162.755L162.473 69.9142ZM46.1796 70.307V71.0926H46.7428L46.1796 70.307Z" fill="#F1A844"/>
<path d="M91.5145 71.093V71.4863L92.9224 70.6998L91.5145 71.093Z" fill="#264258"/>
<path d="M108.691 70.307V70.6998H109.536L108.691 70.307ZM112.352 70.307V70.6998H113.196L112.352 70.307ZM157.968 70.307L158.531 73.4492V73.842H157.968V74.2348C159.391 77.0337 158.679 78.9999 161.629 80.1264L160.784 70.6998L157.968 70.307Z" fill="#DC4F37"/>
<path d="M110.099 70.6998V71.093H111.788L110.099 70.6998Z" fill="#DC4F37"/>
<path d="M78.0094 71.6145C76.1726 72.5623 74.0625 79.4214 77.4353 77.9771C78.313 77.6012 79.6049 76.6425 79.88 75.3306C80.2508 73.5619 79.7417 70.7206 78.0094 71.6145Z" fill="#264258"/>
<path d="M84.4749 71.8781V72.2709L85.8828 71.4853L84.4749 71.8781Z" fill="#264258"/>
<path d="M153.463 71.0925V71.4858H154.589L153.463 71.0925Z" fill="#ABDDE8"/>
<path d="M81.9407 72.2714V72.6646L83.3486 71.8781L81.9407 72.2714Z" fill="#264258"/>
<path d="M94.0487 72.2709V72.6636L95.4566 71.8781L94.0487 72.2709Z" fill="#264258"/>
<path d="M150.365 75.0203C151.219 75.0714 152.049 75.2992 152.9 75.3777C154.077 75.4873 157.352 74.4775 155.344 72.1149C153.611 70.0752 150.874 72.547 150.365 75.0203Z" fill="#4CD4F0"/>
<path d="M87.5723 72.6641V73.0574L88.9802 72.2709L87.5723 72.6641ZM89.5434 72.6641V73.0574L90.9513 72.2709L89.5434 72.6641Z" fill="#264258"/>
<path d="M156.842 72.2709L157.686 73.0574V72.6641L156.842 72.2709Z" fill="#DC4F37"/>
<path d="M165.571 72.2709L163.881 73.842V74.6275L166.416 73.842L165.571 72.2709Z" fill="#ABDDE8"/>
<path d="M82.5038 73.4492V73.842L83.9117 73.0564L82.5038 73.4492Z" fill="#264258"/>
<path d="M92.0776 73.842V74.2348L93.4856 73.4492L92.0776 73.842Z" fill="#264258"/>
<path d="M85.6012 74.2352V74.6285L87.0091 73.842L85.6012 74.2352Z" fill="#264258"/>
<path d="M113.759 73.842V74.6285H114.323V73.842H113.759Z" fill="#4CD4F0"/>
<path d="M166.415 73.842V75.0203H166.696L166.415 73.842Z" fill="#ABDDE8"/>
<path d="M92.6408 75.0203V75.4131L94.0487 74.6275L92.6408 75.0203Z" fill="#264258"/>
<path d="M97.4277 75.4131V75.8059C99.0839 74.8023 99.7775 75.1696 101.37 76.1987V76.5914L98.2724 78.9481L99.1172 81.3048L101.933 82.4831V83.2686L101.088 83.6614V84.0542C102.723 83.6536 103.603 84.0613 105.03 85.2325L103.904 86.0181V86.4109L105.875 85.2325L103.341 83.2686V82.4831L107.283 80.912C105.309 78.0722 100.069 73.1853 97.4277 75.4131Z" fill="#264258"/>
<path d="M158.25 74.2347V76.1986H158.531L158.25 74.2347Z" fill="#F1A844"/>
<path d="M35.761 74.6276V76.1987H36.0426L35.761 75.4131L36.3242 76.1987H36.6058L35.761 74.6276Z" fill="#4CD4F0"/>
<path d="M86.1644 75.4131V75.8058L87.5723 75.0203L86.1644 75.4131ZM90.1065 75.4131V75.8058L91.5144 75.0203L90.1065 75.4131Z" fill="#264258"/>
<path d="M162.755 74.6276L162.473 80.1264H162.755L163.6 75.8059L163.037 76.1987V75.8059V75.4131L164.163 76.1987L162.755 74.6276Z" fill="#ABDDE8"/>
<path d="M83.6302 75.8064V76.1996L85.0381 75.4131L83.6302 75.8064Z" fill="#264258"/>
<path d="M114.886 75.0203V75.4131L115.731 75.8059C115.497 76.9976 115.486 77.573 116.294 78.1625L116.575 76.9842V76.5914L116.012 75.8059L116.857 75.4131V75.0203H114.886Z" fill="#4CD4F0"/>
<path d="M150.365 75.0203V75.4136H152.055L150.365 75.0203Z" fill="#ABDDE8"/>
<path d="M162.192 75.0203C161.4 76.6221 161.862 78.3475 162.192 80.1264H162.473L162.192 75.0203Z" fill="#DC4F37"/>
<path d="M162.473 75.0203V79.3409H162.754L162.473 75.0203Z" fill="#F1A844"/>
<path d="M52.3744 75.4131L52.656 76.9842H52.9376L53.2192 76.5914V76.1986L52.3744 75.4131Z" fill="#F1A844"/>
<path d="M152.899 75.4131V75.8064H154.871L152.899 75.4131Z" fill="#ABDDE8"/>
<path d="M88.6986 76.5914V76.9842L90.1066 76.1986L88.6986 76.5914ZM90.6697 76.5914V76.9842L92.0776 76.1986L90.6697 76.5914ZM92.6408 76.5914V76.9842L94.0487 76.1986L92.6408 76.5914Z" fill="#264258"/>
<path d="M2.53424 76.1987V76.5919H3.37899L2.53424 76.1987ZM4.22374 76.1987V76.5919H13.516L4.22374 76.1987ZM23.0898 76.1987V76.5919H24.7793L23.0898 76.1987Z" fill="#4CD4F0"/>
<path d="M41.1111 76.1987L41.3927 77.377L39.7032 76.5914L39.9848 78.1626L41.1111 77.7698L40.2664 78.5553L41.6743 91.517L44.4901 90.7314V87.982H44.2085V88.7675H43.9269L44.2085 86.8036H43.9269V87.5892H43.6453L43.9269 85.2325H43.6453V86.0181H43.3638C43.0867 83.1492 42.5441 78.3228 41.1111 76.1987ZM41.9558 76.1987V77.377H42.2374L41.9558 76.1987Z" fill="#4CD4F0"/>
<path d="M82.2222 76.9847V77.378L83.6301 76.5914L82.2222 76.9847ZM86.1644 76.9847V77.378L87.5723 76.5914L86.1644 76.9847Z" fill="#264258"/>
<path d="M95.1751 76.1987L83.067 86.0181V86.4109L95.4566 76.5914L95.1751 76.1987Z" fill="#264258"/>
<path d="M113.759 76.1987V76.5914L115.167 77.377V76.9842L113.759 76.1987Z" fill="#4CD4F0"/>
<path d="M115.731 76.1987V77.377H116.011L115.731 76.1987Z" fill="#ABDDE8"/>
<path d="M170.639 76.1987V76.5919H175.708L170.639 76.1987ZM176.271 76.1987V76.5919H177.116L176.271 76.1987Z" fill="#4CD4F0"/>
<path d="M84.4749 76.5914L76.8722 82.8759V83.2686L82.7854 78.7863L84.4749 76.5914Z" fill="#264258"/>
<path d="M32.9452 76.9842L33.2268 78.1625H33.5084L32.9452 76.9842Z" fill="#ABDDE8"/>
<path d="M33.7899 76.9842C33.9955 78.324 34.5632 78.2639 35.1979 77.3775L33.7899 76.9842Z" fill="#264258"/>
<path d="M56.3166 76.9842V77.7707H56.8797L56.3166 76.9842Z" fill="#F1A844"/>
<path d="M91.2329 77.7698V78.1625L92.6408 77.377L91.2329 77.7698Z" fill="#264258"/>
<path d="M116.575 76.9842L116.294 78.5553L116.575 78.9481L117.139 78.5553C117.959 80.7945 119.847 81.7816 121.362 82.9862C124.86 85.7663 127.726 88.0369 131.781 88.7675V88.3747C128.783 85.5652 125.488 82.6912 122.207 80.5738C120.57 79.5172 118.899 80.5259 118.546 77.377L117.139 78.1625L116.575 76.9842Z" fill="#4CD4F0"/>
<path d="M157.123 77.377V77.7697L158.531 78.1625L158.25 76.9842L157.123 77.377Z" fill="#DC4F37"/>
<path d="M21.4003 77.377L20.8371 78.5553V78.9481C21.583 78.725 21.7818 78.3243 21.4003 77.377Z" fill="#ABDDE8"/>
<path d="M86.7275 78.1625V78.5553L88.1354 77.7697L86.7275 78.1625ZM88.6986 78.1625V78.5553L90.1065 77.7697L88.6986 78.1625Z" fill="#264258"/>
<path d="M118.546 77.377C118.671 79.6625 119.523 80.3507 121.081 79.7336L118.546 77.377Z" fill="#264258"/>
<path d="M34.6347 78.9481H35.761L35.4795 77.7697L34.6347 78.9481Z" fill="#ABDDE8"/>
<path d="M80.2512 78.5558V78.9491L81.6591 78.1625L80.2512 78.5558Z" fill="#264258"/>
<path d="M153.744 83.2686C154.518 83.2588 155.248 83.225 155.997 82.923C161.006 80.9041 156.776 74.9528 154.31 80.5247C153.924 81.397 153.818 82.2733 153.744 83.2686Z" fill="#4CD4F0"/>
<path d="M100.525 80.5192C102.542 82.8715 103.81 81.6441 105.875 80.1264C103.876 77.7065 102.535 78.6645 100.525 80.5192Z" fill="#ABDDE8"/>
<path d="M89.2618 79.3409V79.7336L90.6697 78.9481L89.2618 79.3409Z" fill="#264258"/>
<path d="M82.7854 79.7336V80.1264L84.1933 79.3408L82.7854 79.7336Z" fill="#264258"/>
<path d="M22.5266 79.7337L22.8082 80.912H23.0898L22.5266 79.7337Z" fill="#ABDDE8"/>
<path d="M23.3714 79.7336C23.8551 84.2349 25.7093 87.5794 28.7215 89.1603C28.4934 84.9395 26.2963 81.0868 23.3714 79.7336Z" fill="#264258"/>
<path d="M29.2846 80.1264L28.7215 89.1603L29.2846 93.4808L25.9056 91.1241V91.5169C28.931 94.3096 29.2846 95.5519 29.2846 100.551L28.4399 100.158L29.003 102.907L24.4977 101.729V102.122C25.3967 102.331 28.5094 102.938 29.003 104.086C29.7107 105.731 28.9008 111.316 28.4399 111.156L29.003 113.905L24.7793 113.12V113.512L29.003 115.084C28.3852 117.702 27.6677 118.248 25.9056 119.404C27.6063 122.102 31.254 122.105 32.9452 119.404C32.0112 118.792 27.9216 115.201 31.5133 114.809C32.2818 114.726 34.6755 115.866 35.4794 116.265C39.4512 118.238 44.6199 122.747 47.8691 126.474H48.1507L51.8113 122.153L48.4323 124.903H48.1507L36.8874 114.691L38.2953 113.905C37.8146 109.813 35.8218 108.492 32.9452 108.406L34.9163 104.479L29.8478 111.549C29.8478 109.66 29.2055 104.564 30.2952 103.222C31.151 102.168 33.0975 104.661 34.3641 104.259C39.3019 102.693 35.1106 98.3143 32.382 97.8013L33.2268 95.8375L29.5662 100.944C29.5662 98.9023 28.9695 94.471 30.0176 92.8728C30.3957 92.2962 38.3879 93.0248 34.851 88.7655C34.5567 88.4108 34.1453 88.2133 33.7899 88.0173C33.1026 87.6383 32.4595 87.3256 31.8189 86.8036L29.5662 89.9458L29.2846 80.1264ZM84.1933 80.1264L73.7747 88.6571L68.9878 93.088L84.4749 80.5192L84.1933 80.1264Z" fill="#264258"/>
<path d="M76.309 81.698V82.0913L77.7169 81.3047L76.309 81.698Z" fill="#264258"/>
<path d="M87.2907 80.912L81.0959 86.0181V86.4109L87.5723 81.3048L87.2907 80.912ZM107.565 80.912V81.3048L111.225 84.0542V83.6614L107.565 80.912Z" fill="#264258"/>
<path d="M80.8143 81.3047L77.9985 83.6614V84.0542L81.0959 81.6975L80.8143 81.3047Z" fill="#264258"/>
<path d="M83.3485 82.4836V82.8769L84.7565 82.0903L83.3485 82.4836Z" fill="#264258"/>
<path d="M43.0822 82.0903V83.2687H43.363L43.0822 82.0903Z" fill="#4CD4F0"/>
<path d="M74.901 82.8764V83.2696L76.309 82.4831L74.901 82.8764Z" fill="#264258"/>
<path d="M161.629 82.0903L161.065 87.982C162.503 86.8767 162.605 84.143 162.192 82.0903H161.629Z" fill="#DC4F37"/>
<path d="M156.278 82.4831V82.8764H157.123L156.278 82.4831Z" fill="#F1A844"/>
<path d="M81.3775 84.0542V84.4469L82.7854 83.6614L81.3775 84.0542Z" fill="#264258"/>
<path d="M87.8539 83.6614L79.688 90.3386V90.7314L88.1355 84.0542L87.8539 83.6614Z" fill="#264258"/>
<path d="M111.225 83.6614L111.507 85.2325H111.788L111.225 83.6614Z" fill="#4CD4F0"/>
<path d="M29.5662 84.0542L29.8478 86.0181H30.1294L29.5662 84.0542Z" fill="#ABDDE8"/>
<path d="M73.2116 84.0542L68.9878 87.5892V87.982C69.9714 87.513 73.4118 85.6312 73.2116 84.0542Z" fill="#264258"/>
<path d="M111.507 84.0542L114.041 87.1964H115.167V86.8036L111.507 84.0542Z" fill="#264258"/>
<path d="M79.4064 85.6253V86.0181L81.3775 84.8397L79.4064 85.6253Z" fill="#264258"/>
<path d="M96.8645 85.233V85.6263L98.2724 84.8397L96.8645 85.233Z" fill="#264258"/>
<path d="M72.93 86.0181V86.4109L74.9011 85.2325L72.93 86.0181ZM75.4642 85.6253V86.0181L76.8722 85.2325L75.4642 85.6253Z" fill="#264258"/>
<path d="M106.72 88.3748V88.7675L111.507 85.2325L106.72 88.3748Z" fill="#264258"/>
<path d="M162.192 84.8397V87.1964H162.473L162.192 84.8397Z" fill="#F1A844"/>
<path d="M89.825 92.6953V93.0881L99.6804 85.6253C96.9375 85.0672 92.3364 91.0578 89.825 92.6953Z" fill="#264258"/>
<path d="M94.8935 86.8036V87.1964L96.8646 86.0181L94.8935 86.8036Z" fill="#264258"/>
<path d="M77.9985 86.8036V87.1964L79.4064 86.4108L77.9985 86.8036Z" fill="#264258"/>
<path d="M43.6454 86.4108V87.5892H43.9261L43.6454 86.4108Z" fill="#ABDDE8"/>
<path d="M71.5221 87.1969V87.5901L72.93 86.8036L71.5221 87.1969ZM73.4931 87.1969V87.5901L74.9011 86.8036L73.4931 87.1969Z" fill="#264258"/>
<path d="M96.583 89.1602V89.553L100.525 86.8036L96.583 89.1602Z" fill="#264258"/>
<path d="M79.9696 86.8036L73.4932 91.9097V92.3025L80.2512 87.1964L79.9696 86.8036Z" fill="#264258"/>
<path d="M43.9269 87.5892V88.7675H44.2077L43.9269 87.5892Z" fill="#ABDDE8"/>
<path d="M69.551 88.768V89.1613L70.9589 88.3748L69.551 88.768Z" fill="#264258"/>
<path d="M97.4277 90.3386V90.7314L100.807 88.3747L97.4277 90.3386ZM94.0487 95.0519V95.4447L103.059 88.3747C100.629 88.0535 96.0893 93.1745 94.0487 95.0519Z" fill="#264258"/>
<path d="M112.352 87.9819L111.788 88.3752V88.7685L112.352 87.9819Z" fill="#F1A844"/>
<path d="M22.2451 88.7675C22.5502 93.6112 24.8215 98.5774 28.4399 98.9796C28.3492 93.7223 26.0198 95.5998 24.0032 92.9234C22.9053 91.4662 23.876 89.476 22.2451 88.7675ZM78.5616 89.553V89.9458L79.9695 89.1602L78.5616 89.553Z" fill="#264258"/>
<path d="M103.904 88.7675L97.1461 94.2663V94.6591C98.8078 93.9258 103.415 91.1712 103.904 88.7675Z" fill="#264258"/>
<path d="M70.1142 89.9458V90.3386L71.5221 89.5531L70.1142 89.9458ZM74.0563 89.9458V90.3386L75.4642 89.5531L74.0563 89.9458Z" fill="#264258"/>
<path d="M82.7854 96.623V97.0158L92.3592 89.5531C89.8033 89.218 84.9958 94.7358 82.7854 96.623Z" fill="#264258"/>
<path d="M94.6118 90.7314V91.1241L96.5829 89.9458L94.6118 90.7314Z" fill="#264258"/>
<path d="M30.411 89.9458L29.5662 91.9097H29.8478H30.1294L30.6925 90.7314L30.411 91.5169H30.6925L30.411 89.9458Z" fill="#4CD4F0"/>
<path d="M91.5145 100.551V100.944L105.312 90.3386L101.088 93.0091L91.5145 100.551ZM110.099 89.9458L109.536 90.3386V90.7314L110.099 89.9458Z" fill="#264258"/>
<path d="M76.5906 91.1241V91.5169L77.9985 90.7313L76.5906 91.1241Z" fill="#264258"/>
<path d="M95.4566 91.9097V92.3025L97.4277 91.1241L95.4566 91.9097Z" fill="#264258"/>
<path d="M48.1507 91.9097L50.9665 105.264L54.6271 101.729L57.7245 100.158C56.0747 96.5107 50.9558 93.5876 48.1507 91.9097Z" fill="#4CD4F0"/>
<path d="M70.6773 92.6958V93.089L72.0852 92.3025L70.6773 92.6958Z" fill="#264258"/>
<path d="M91.2329 93.4808V93.8736L93.2039 92.6953L91.2329 93.4808ZM93.4855 93.4808V93.8736L95.4566 92.6953L93.4855 93.4808Z" fill="#264258"/>
<path d="M29.8478 92.6953V93.8736H30.1286L29.8478 92.6953Z" fill="#ABDDE8"/>
<path d="M155.152 92.6953L154.589 93.0885V93.4818L155.152 92.6953Z" fill="#F1A844"/>
<path d="M153.181 94.6591V95.4447C155.379 97.0248 155.622 95.4954 155.997 92.6953L153.181 94.6591Z" fill="#4CD4F0"/>
<path d="M68.9878 95.8375V96.2303L72.6484 93.4809L68.9878 95.8375ZM73.2116 93.8736V94.2664L74.6195 93.4809L73.2116 93.8736ZM75.1826 93.8736V94.2664L76.5906 93.4809L75.1826 93.8736Z" fill="#264258"/>
<path d="M12.9528 93.8736C13.1835 95.3767 13.9676 95.1104 14.3607 93.8736H12.9528Z" fill="#264258"/>
<path d="M88.417 93.8736L80.5327 100.158V100.551L88.6986 94.2664L88.417 93.8736Z" fill="#264258"/>
<path d="M89.2618 95.0519V95.4447L91.2329 94.2664L89.2618 95.0519ZM91.7961 95.0519V95.4447L93.4856 94.2664L91.7961 95.0519Z" fill="#264258"/>
<path d="M71.2405 95.4451V95.8384L72.6484 95.0519L71.2405 95.4451ZM73.2116 95.4451V95.8384L74.6195 95.0519L73.2116 95.4451Z" fill="#264258"/>
<path d="M134.878 94.6592L98.554 123.835L88.9802 131.576L83.6301 135.115L86.1644 127.26L81.3774 130.63L78.8432 128.081L73.7747 122.939L79.6879 132.758L77.7169 132.366L77.1537 134.33L76.5905 131.187L75.7458 131.58L76.0274 133.544C74.5378 132.714 73.55 133.29 72.3668 134.722L75.7458 135.508C74.9531 137.403 74.049 142.048 72.0841 141.945C71.2331 141.9 70.3605 140.973 69.551 140.614V139.828L71.2405 138.65C69.1734 137.666 68.0327 137.85 66.172 139.436C67.5179 141.194 70.7497 144.374 72.6484 144.374C73.8406 144.374 75.0342 143.035 76.0274 142.244C78.574 140.217 81.2569 138.306 83.6301 135.901V140.221C85.06 139.52 84.9076 138.036 85.9495 136.869C88.1298 134.425 91.0569 132.68 93.4855 130.736C103.54 122.685 113.547 114.518 123.615 106.501L132.626 99.2621C133.94 98.2162 135.578 97.0791 134.878 94.6592Z" fill="#264258"/>
<path d="M30.9741 95.4447C29.1957 96.6525 29.8337 98.5555 29.8478 100.944H30.1294L30.9741 95.4447Z" fill="#ABDDE8"/>
<path d="M87.2907 96.623V97.0158L89.2618 95.8375L87.2907 96.623Z" fill="#264258"/>
<path d="M135.16 95.8375V97.0158H135.441L135.16 95.8375Z" fill="#4CD4F0"/>
<path d="M28.7215 96.2302V100.158H29.0022L28.7215 96.2302Z" fill="#ABDDE8"/>
<path d="M69.2694 97.0163V97.4096L70.6773 96.623L69.2694 97.0163Z" fill="#264258"/>
<path d="M84.4749 102.515V102.907L92.9223 96.623C90.4672 96.1234 86.7469 101.149 84.4749 102.515ZM91.796 98.5869V98.9797L95.175 96.623L91.796 98.5869Z" fill="#264258"/>
<path d="M88.1355 97.8014V98.1941L90.1066 97.0158L88.1355 97.8014Z" fill="#264258"/>
<path d="M113.196 96.623V97.4096H113.759V96.623H113.196Z" fill="#F1A844"/>
<path d="M88.9802 104.479V104.871L98.8356 97.4086C96.127 96.8575 91.4809 102.85 88.9802 104.479Z" fill="#264258"/>
<path d="M107.283 104.871V105.264C110.734 108.153 116.043 101.598 119.11 98.9797C116.373 94.8661 110.028 102.613 107.283 104.871Z" fill="#4CD4F0"/>
<path d="M21.1187 97.4086L21.6819 102.122H21.9635L23.653 99.7652L21.1187 97.4086Z" fill="#264258"/>
<path d="M65.3272 97.4086L60.2587 101.336V101.729C62.8144 103.209 63.8472 102.535 66.172 100.551L65.3272 97.4086Z" fill="#4CD4F0"/>
<path d="M69.8326 98.1941V98.5869L71.2405 97.8013L69.8326 98.1941Z" fill="#264258"/>
<path d="M155.715 97.4086V99.3725H155.996L155.715 97.4086Z" fill="#F1A844"/>
<path d="M29.5662 97.8014V100.944H29.8478L29.5662 97.8014Z" fill="#4CD4F0"/>
<path d="M77.4353 100.944V101.336L81.6591 98.1942L77.4353 100.944Z" fill="#264258"/>
<path d="M23.653 98.9797V99.3725L25.624 98.9797V98.1942L23.653 98.9797Z" fill="#ABDDE8"/>
<path d="M36.3242 98.9797C37.027 102.859 34.7206 105.208 32.1004 103.693L30.4109 109.585L34.9163 104.479L32.9452 108.406L35.1979 108.799C35.3803 107.329 40.4305 96.3783 36.3242 98.9797Z" fill="#4CD4F0"/>
<path d="M81.9407 100.944V101.336L85.8828 98.5869L81.9407 100.944ZM82.7854 102.122V102.515L88.1355 98.5869L82.7854 102.122Z" fill="#264258"/>
<path d="M147.831 98.5869V99.3734L148.394 98.5869H147.831Z" fill="#F1A844"/>
<path d="M89.825 100.158V100.551L91.7961 99.3724L89.825 100.158Z" fill="#264258"/>
<path d="M145.015 98.9797C145.334 101.702 148.047 102.012 147.831 98.9797H145.015Z" fill="#264258"/>
<path d="M165.289 98.9797V100.158H165.571L165.289 98.9797Z" fill="#F1A844"/>
<path d="M136.849 104.086C140.334 108.847 133.679 111.889 134.155 116.653C134.561 120.706 137.886 119.846 138.539 123.332H137.694C138.062 129.785 134.734 133.514 133.189 139.436C135.662 137.499 137.643 131.559 138.82 128.045L141.355 137.472H141.636L141.355 135.508L143.889 141.792H144.17L139.665 121.761L140.51 122.153V121.761C138.766 120.459 138.264 119.406 138.257 116.655L143.044 120.19L142.763 124.117H143.889C143.889 121.296 143.954 119.49 141.918 118.226V117.44C143.332 116.81 145.961 113.055 145.827 110.769C145.7 108.596 142.338 106.968 141.073 107.228C141.073 105.308 141.611 101.415 140.42 100.057C139.161 98.6203 137.781 100.261 136.568 100.845C133.873 102.14 128.7 102.992 127.758 108.012C127.374 110.054 128.955 110.836 130.091 110.448C132.464 109.639 136.315 107.746 136.849 104.086Z" fill="#264258"/>
<path d="M148.394 99.3724V100.944H148.676L148.394 99.3724Z" fill="#4CD4F0"/>
<path d="M41.6743 100.551V100.944L43.0822 101.336V100.158L41.6743 100.551Z" fill="#264258"/>
<path d="M55.7534 100.551L55.1902 100.944V101.336L55.7534 100.551ZM65.8904 100.551L57.7245 107.228V108.014L59.1324 108.799C58.5476 110.99 58.5605 112.656 59.414 114.691H59.6956L59.414 112.727H60.5403C60.5403 115.872 62.283 123.153 64.7641 117.833L62.793 118.618V117.833H63.9193V117.44C62.7567 117.388 60.5015 116.023 62.3281 114.303C63.2562 113.429 64.8142 113.49 65.8904 113.12L65.6088 114.298L73.2116 120.3L76.5905 122.62L81.659 119.011L78.28 115.869C75.478 117.553 74.5674 119.067 71.5221 117.833V117.047L75.4642 114.298V113.905C74.232 113.905 72.467 112.56 72.6484 111.549C71.9543 111.621 69.5059 110.579 70.1141 109.585V109.192L67.0167 108.014V107.228H68.4246L66.7351 102.907H66.4536L66.7351 104.479C64.935 105.399 64.3183 105.266 62.5114 104.479V103.693L66.4536 102.515L65.8904 100.551Z" fill="#264258"/>
<path d="M140.228 100.551L138.82 108.799C141.092 107.847 141.616 103.106 140.228 100.551Z" fill="#ABDDE8"/>
<path d="M155.997 100.551V101.729H156.278L155.997 100.551Z" fill="#F1A844"/>
<path d="M28.4399 101.336L28.1583 102.907L29.003 101.336H28.4399Z" fill="#ABDDE8"/>
<path d="M79.9696 102.515V102.907L81.9407 101.729L79.9696 102.515Z" fill="#264258"/>
<path d="M52.656 107.621V108.406L58.5692 112.334L59.1324 108.799L57.7245 108.014V107.228L62.5114 103.693V102.907C58.8812 100.848 55.8979 105.51 52.656 107.621Z" fill="#ABDDE8"/>
<path d="M63.0746 103.693C64.4081 104.815 65.2475 105.335 66.7351 104.479C66.1382 101.326 64.6123 101.899 63.0746 103.693Z" fill="#4CD4F0"/>
<path d="M75.7458 104.086V104.479L79.1248 102.122L75.7458 104.086Z" fill="#264258"/>
<path d="M84.4749 104.479V104.871L88.417 102.122L84.4749 104.479ZM90.1065 101.729L85.8828 105.264V105.657C87.135 105.017 89.7244 103.608 90.1065 101.729Z" fill="#264258"/>
<path d="M35.761 109.192C37.1126 109.928 38.0143 111.012 38.0137 113.12L45.0533 118.785L48.4323 121.106L53.2192 118.226C54.5356 115.641 56.4929 113.939 58.5692 112.727C55.5755 109.917 52.1309 108.014 48.9954 105.527C47.6444 104.456 45.8242 102.29 44.2085 102.29C41.9401 102.29 37.1143 106.786 35.761 109.192Z" fill="#F1A844"/>
<path d="M71.5221 105.657V106.05L76.309 102.515L71.5221 105.657Z" fill="#264258"/>
<path d="M129.81 102.122L129.247 102.515V102.908L129.81 102.122Z" fill="#4CD4F0"/>
<path d="M29.8478 102.907V111.549H30.1294L32.382 104.479C31.6341 103.121 31.0732 102.719 29.8478 102.907Z" fill="#ABDDE8"/>
<path d="M80.8143 103.693V104.086L82.7854 102.907L80.8143 103.693Z" fill="#264258"/>
<path d="M105.875 103.3L106.157 103.693L107.001 102.907L105.875 103.3Z" fill="#F1A844"/>
<path d="M78.5617 103.693V104.087L79.9696 103.3L78.5617 103.693Z" fill="#264258"/>
<path d="M27.5951 103.3L28.7215 111.549H29.003V103.693L27.5951 103.3Z" fill="#ABDDE8"/>
<path d="M62.793 103.693C63.3795 105.13 64.175 105.491 65.3272 105.657V105.264L62.793 103.693Z" fill="#ABDDE8"/>
<path d="M76.309 109.192V109.585L83.6302 104.086C81.5132 103.655 78.1765 107.805 76.309 109.192Z" fill="#264258"/>
<path d="M78.8432 105.264V105.657L80.8143 104.479L78.8432 105.264Z" fill="#264258"/>
<path d="M73.7747 105.657V106.05L75.7458 104.871L73.7747 105.657Z" fill="#264258"/>
<path d="M137.412 104.479V109.977H137.693L137.412 104.479Z" fill="#4CD4F0"/>
<path d="M23.0898 104.871C24.326 108.495 25.8322 108.902 28.4399 109.585L27.3135 104.871H23.0898Z" fill="#264258"/>
<path d="M58.8508 107.228L63.9193 106.835C62.5877 104.002 60.3156 105.315 58.8508 107.228Z" fill="#ABDDE8"/>
<path d="M82.5038 106.05V106.442L84.4749 105.264L82.5038 106.05Z" fill="#264258"/>
<path d="M96.583 113.512L101.37 116.775L111.507 109.192V108.406L107.283 105.471L103.904 107.465L96.583 113.512Z" fill="#264258"/>
<path d="M74.6195 106.835V107.228L76.5906 106.05L74.6195 106.835ZM75.4643 108.014V108.406L78.8433 106.05L75.4643 108.014Z" fill="#264258"/>
<path d="M79.688 111.941V112.334L88.1355 106.05C85.6804 105.55 81.9601 110.576 79.688 111.941Z" fill="#264258"/>
<path d="M157.405 105.657L157.968 106.443V105.657H157.405Z" fill="#4CD4F0"/>
<path d="M159.094 105.657V106.05H159.939L159.094 105.657Z" fill="#F1A844"/>
<path d="M138.82 106.05V108.406H139.102L138.82 106.05Z" fill="#4CD4F0"/>
<path d="M83.3486 107.228V107.621L84.7565 106.835L83.3486 107.228Z" fill="#264258"/>
<path d="M158.813 106.442V106.836H160.221L158.813 106.442ZM161.347 106.442V106.836H162.192L161.347 106.442Z" fill="#4CD4F0"/>
<path d="M124.178 106.835L123.615 107.228V107.622L124.178 106.835Z" fill="#4CD4F0"/>
<path d="M78.5617 111.156V111.549L83.3486 108.014L78.5617 111.156Z" fill="#264258"/>
<path d="M122.77 107.621L122.489 108.407H123.052L122.77 107.621Z" fill="#4CD4F0"/>
<path d="M65.3272 108.799L66.172 111.941L68.4247 110.37C67.5467 108.947 66.656 108.347 65.3272 108.799Z" fill="#ABDDE8"/>
<path d="M27.5951 114.298L24.7793 113.512V113.12L27.8767 113.905L28.7214 112.334C27.8705 107.627 21.7393 107.925 20.7952 112.728C19.7131 118.234 26.0992 117.188 27.5951 114.298Z" fill="#4CD4F0"/>
<path d="M93.204 133.937C100.717 140.979 108.993 146.863 116.857 153.124C119.273 155.048 123.347 159.968 126.149 160.065C128.738 160.155 132.664 155.397 134.878 153.627C142.209 147.77 149.637 142.052 156.842 135.901V135.115L139.947 121.761C139.77 124.255 141.993 125.169 143.326 126.248C146.996 129.22 150.673 132.829 154.589 135.115V135.901C147.517 139.492 140.556 146.891 134.033 152.171C132.015 153.805 128.519 158.005 126.149 157.981C123.705 157.957 120.088 153.564 117.983 151.894C112.991 147.933 108.047 143.859 103.059 139.887C100.724 138.028 98.3023 135.462 95.7382 134.33V133.544C102.729 128.986 109.301 122.652 116.012 117.33C118.096 115.677 121.654 111.349 124.059 111.232C127.018 111.089 131.299 116.975 134.033 118.619L134.315 116.655C131.384 114.944 127.34 109.312 124.178 109.296C121.594 109.284 117.934 113.663 115.731 115.417C110.46 119.614 105.177 123.823 99.962 128.15C97.7552 129.981 95.083 131.483 93.204 133.937Z" fill="#F1A844"/>
<path d="M144.452 109.585V111.549L145.578 111.156V110.37L144.452 109.585Z" fill="#ABDDE8"/>
<path d="M65.8904 112.727V113.12C68.2436 114.524 69.0759 114.332 71.2405 112.334C69.1914 109.944 67.9772 111.178 65.8904 112.727Z" fill="#ABDDE8"/>
<path d="M95.7382 133.544V134.33C103.209 139.201 110.255 145.965 117.42 151.671C119.681 153.472 123.512 158.109 126.149 158.121C128.659 158.133 132.186 153.895 134.315 152.171C141.041 146.726 147.71 140.955 154.589 135.901V135.115C150.083 131.408 144.963 125.783 139.947 123.725L140.228 125.688C144.714 126.179 148.953 132.969 153.181 135.115V135.901C146.528 138.838 139.777 146.279 133.752 151.215C131.801 152.813 128.526 156.683 126.269 156.931C124.164 157.163 120.36 152.613 118.546 151.16L104.749 140.056C102.327 138.119 99.8335 135.432 97.1461 134.33V133.544C103.745 129.577 110.117 123.435 116.294 118.305C118.218 116.706 121.912 112.349 124.178 112.466C125.594 112.54 127.219 114.503 128.402 115.472C131.633 118.119 135.021 121.535 138.539 123.332L137.412 121.761L137.976 121.368V120.975C136.331 120.566 134.603 119.533 134.315 117.047H134.033V118.619C131.542 116.491 127.116 111.298 124.178 111.135C121.839 111.006 118.289 115.286 116.294 116.882C109.454 122.352 102.313 127.476 95.7382 133.544Z" fill="#DC4F37"/>
<path d="M30.4109 111.549L29.8478 114.691L31.2557 113.905L30.4109 111.549Z" fill="#ABDDE8"/>
<path d="M97.1461 133.544V134.33C104.368 138.671 111.147 145.503 117.983 150.937C120.088 152.609 123.704 157.011 126.149 157.057C128.433 157.099 132.081 152.814 134.034 151.215C140.305 146.077 146.595 140.195 153.181 135.901V135.115L140.51 125.296L141.918 132.366L143.326 131.973C142.679 133.641 142.324 135.105 143.607 136.293L144.17 141.792L142.199 137.079L141.073 137.472C140.25 134.279 137.342 135.004 135.441 135.901V136.686L140.228 140.614V141.007L136.568 143.363L138.539 141.4L134.878 137.472H134.597L134.034 139.043L136.286 141.007C135.178 141.673 133.884 143.259 132.626 143.029C129.87 142.524 127.814 137.903 125.023 137.713C121.267 137.458 120.441 143.503 116.575 139.043L121.644 135.115V134.33L114.323 128.831V128.045L117.702 126.233L125.304 131.655L130.655 128.187L133.752 129.616V130.402L128.683 134.722L133.47 138.257C133.491 136.466 132.428 135.803 131.499 134.722L136.568 130.795V130.009L134.597 128.438L137.413 129.223L137.976 122.939C134.835 120.258 131.57 117.858 128.402 115.239C127.23 114.27 125.584 112.31 124.178 112.259C121.87 112.174 118.251 116.452 116.294 118.07C109.951 123.313 103.435 128.175 97.1461 133.544Z" fill="#F1A844"/>
<path d="M28.1583 112.334L27.8767 113.905H29.003L28.7215 112.334H28.1583Z" fill="#ABDDE8"/>
<path d="M117.138 112.334L110.38 118.226C112.06 117.484 116.643 114.781 117.138 112.334Z" fill="#4CD4F0"/>
<path d="M51.5297 127.652L52.656 137.079L52.9376 138.257L53.7823 141.792H54.0639C54.1749 138.17 55.4859 134.952 57.7245 133.151C56.8071 131.296 55.7475 125.791 59.0806 127.146C60.4204 127.691 61.2845 129.794 62.793 130.402L64.4825 120.19L67.5799 122.154L69.2694 118.226V117.44L68.7062 116.262L67.2983 115.084L65.3272 114.298C64.7455 117.278 64.2975 120.261 61.6666 119.011C59.3546 122.054 57.5496 115.417 58.5692 112.727C55.3488 114.023 52.5926 117.448 51.918 122.154C51.6809 123.807 52.2483 126.309 51.5297 127.652Z" fill="#DC4F37"/>
<path d="M59.6956 112.727V114.298H59.9772L60.5403 113.905L60.2587 112.727H59.6956Z" fill="#ABDDE8"/>
<path d="M69.2694 113.905V114.298L71.2405 113.12L69.2694 113.905Z" fill="#264258"/>
<path d="M68.9878 114.691V115.476C71.0653 117.216 72.1052 116.357 74.0563 114.691C72.2069 112.278 70.9997 113.381 68.9878 114.691Z" fill="#ABDDE8"/>
<path d="M60.5403 116.262H60.2588V117.047H59.9772V114.691C60.6231 114.703 60.4604 114.364 60.2588 113.512L59.1324 115.084L58.8508 113.12C55.1249 116.038 63.0354 124.297 60.5403 116.262Z" fill="#F1A844"/>
<path d="M37.7321 113.512L36.8874 114.691C38.3502 118.27 45.2318 123.576 48.1507 124.117L48.4323 121.368C45.3343 118.723 41.3662 114.221 37.7321 113.512Z" fill="#DC4F37"/>
<path d="M61.9483 116.262L61.6667 117.047L63.0746 117.44V117.047H62.5114V116.655L64.2009 117.44V117.833H62.793V118.226C64.6827 118.309 65.0831 116.072 65.6088 113.905C64.7323 113.667 60.243 113.902 61.9483 116.262Z" fill="#F1A844"/>
<path d="M86.1644 121.761V122.153C89.8399 125.485 95.3594 117.74 98.8356 115.476C96.6153 111.347 90.5086 118.259 88.1354 120.19C87.1555 120.987 86.7819 121.976 86.1644 121.761Z" fill="#4CD4F0"/>
<path d="M120.236 116.655V117.047L124.059 115.22L128.683 117.833C126.475 113.033 123.074 114.035 120.236 116.655Z" fill="#DC4F37"/>
<path d="M31.2557 114.298V114.691L32.1005 115.085L31.2557 114.298Z" fill="#ABDDE8"/>
<path d="M27.032 116.262L24.7793 117.047C24.5587 120.947 23.6111 126.337 25.3677 129.88C27.3551 133.888 32.7214 132.664 33.9919 128.438C34.8617 125.544 35.1973 120.287 34.0423 117.448C33.4937 116.099 31.9222 114.426 30.7342 115.167C28.1298 116.791 32.0498 118.988 32.9452 119.404C30.7306 121.895 28.1315 121.891 25.9056 119.404C27.8248 118.511 28.5114 117.818 29.003 115.084C27.9971 114.741 27.3939 114.826 27.032 116.262Z" fill="#DC4F37"/>
<path d="M60.2587 115.083V116.262H60.5395L60.2587 115.083Z" fill="#DC4F37"/>
<path d="M33.7899 115.869C34.5325 119.059 36.0398 119.973 38.0137 121.605C41.1004 124.156 44.4465 127.712 47.8691 129.223C47.895 128.062 48.0639 126.795 47.4729 125.842C46.6225 124.47 45.0369 123.671 43.9269 122.773C40.9562 120.368 37.3033 115.984 33.7899 115.869Z" fill="#4CD4F0"/>
<path d="M59.9772 115.869V117.047H60.2579L59.9772 115.869Z" fill="#ABDDE8"/>
<path d="M62.5114 116.655V117.048H63.6377L62.5114 116.655Z" fill="#ABDDE8"/>
<path d="M138.257 116.655C138.259 120.828 140.151 122.153 142.763 123.725L143.044 120.19L138.257 116.655Z" fill="#4CD4F0"/>
<path d="M68.9878 117.047L69.2694 118.226C68.0186 119.086 67.6545 120.252 67.5799 122.153C66.5394 121.466 65.0842 119.903 64.2009 121.368C65.8234 121.484 68.7642 121.98 69.551 124.117L70.3957 123.725V124.903L70.6773 125.296L72.0852 126.867L73.4931 128.438L74.3379 128.045L74.0563 130.009H74.3379V128.831H74.6195C74.3475 130.971 68.4399 136.369 68.1431 133.544C67.2231 133.972 66.5485 133.8 66.7351 132.758C65.8772 132.958 65.4266 132.989 65.6088 131.973C64.6889 132.401 64.0142 132.229 64.2009 131.187L63.3562 131.58L63.6377 130.795L62.793 131.187C62.6716 130.032 61.8018 129.911 61.1204 129.258C60.4271 128.594 59.9543 127.205 59.0933 126.959C55.7058 125.992 56.2211 131.02 57.7245 133.151C58.433 132.41 60.546 131.941 60.2587 133.544L61.1035 133.151L60.8219 133.937L61.6667 133.544L64.4825 135.115V135.508H63.9193V135.901H66.7351C66.199 137.229 64.38 138.178 64.38 139.803C64.38 141.62 67.4616 143.273 68.4246 144.039C72.9407 147.627 75.5861 144.35 79.688 141.066C81.1694 139.879 83.3319 138.85 83.6301 136.293C80.2877 138 76.1963 144.282 72.6484 144.405C70.6266 144.475 67.9831 141.008 66.172 139.828V139.043L70.1141 137.472L71.2405 138.65L69.551 140.221C70.2792 141.104 71.3235 142.307 72.3615 142.102C73.2206 141.932 74.3328 140.561 73.7747 139.436V139.043C75.1139 138.509 74.4142 136.932 74.0563 135.508H73.7747L74.0563 136.293H73.7747L73.4931 135.115L72.3668 135.508L72.0852 134.33L76.0274 132.758L75.7458 131.58L76.0274 131.187L78.2801 131.58L77.9985 132.758L79.4064 133.151L79.1248 131.58L78.5616 131.973C78.1029 129.793 76.686 129.166 75.6557 127.57C73.612 124.405 72.5558 120.419 69.551 118.618L70.1141 117.833L68.9878 117.047Z" fill="#F1A844"/>
<path d="M74.3379 119.797C76.5748 121.609 77.4809 120.73 79.688 119.404C78.0193 116.699 76.0685 117.699 74.3379 119.797Z" fill="#ABDDE8"/>
<path d="M24.4977 117.833V119.011H24.7785L24.4977 117.833Z" fill="#F1A844"/>
<path d="M52.656 117.833C50.7379 119.744 48.4638 120.407 48.4323 124.117C50.3541 123.329 53.0513 121.128 52.656 117.833Z" fill="#ABDDE8"/>
<path d="M101.933 123.725L101.37 124.117C101.269 125.175 100.964 125.052 100.244 124.903V126.081L99.3988 125.688L99.6804 126.474L98.8356 126.081L97.9909 126.867L98.2725 127.652L97.4277 127.26L97.7093 128.045L96.8646 127.652V128.831L96.0198 128.438L96.3014 129.223L95.4566 128.831L95.7382 129.616L94.8935 129.223L94.0487 130.009L94.3303 130.795H94.0487L92.6408 131.973H91.5145L90.6697 132.758L90.9513 133.544H90.6697L88.6987 134.33L88.9802 135.115H88.6987L86.7276 135.901L87.0092 136.686H86.7276C85.7012 136.751 85.3653 137.213 85.3197 138.65L110.381 118.618L101.933 123.725Z" fill="#4CD4F0"/>
<path d="M34.6347 119.011V119.404L43.9269 126.788L48.4323 129.987L52.0928 127.652L51.8113 126.474L47.9885 129.106L43.9269 126.16L34.6347 119.011Z" fill="#264258"/>
<path d="M34.3531 119.404L34.6347 123.332C39.4163 125.625 43.6963 132.614 48.7138 133.544L47.9809 130.217L43.9269 126.701L34.3531 119.404Z" fill="#F1A844"/>
<path d="M24.2161 119.797V121.761H24.4977L24.2161 119.797Z" fill="#F1A844"/>
<path d="M121.925 120.19V120.582C124.252 122.58 124.46 123.974 124.46 127.652C120.92 126.09 117.644 119.887 114.323 125.296L117.983 124.312L124.741 129.097L129.81 125.861L133.47 126.867V126.474C130.095 123.593 128.829 125.245 125.586 127.652C125.586 123.164 126.886 123.418 128.402 120.19L125.023 121.353L121.925 120.19Z" fill="#DC4F37"/>
<path d="M64.4825 121.368V121.761C66.152 123.134 67.7815 124.899 69.551 122.939L64.4825 121.368Z" fill="#ABDDE8"/>
<path d="M64.2009 121.761L63.6377 123.725L66.172 125.689C65.2532 126.476 62.9104 127.81 62.8904 129.59C62.8704 131.342 67.9102 134.149 68.9878 133.788C69.5912 133.586 73.5309 131.246 73.7615 130.697C74.7715 128.297 70.4312 123.936 68.9878 123.781C67.1012 123.578 65.992 122.551 64.2009 121.761Z" fill="#264258"/>
<path d="M24.2161 123.332V125.689H24.4969L24.2161 123.332Z" fill="#F1A844"/>
<path d="M34.6347 123.332L37.4505 126.474L47.8691 135.115L51.2481 133.151L51.5297 132.366V131.973L48.428 133.639L44.4901 130.799L34.6347 123.332Z" fill="#4CD4F0"/>
<path d="M47.8691 129.616L51.8112 126.474V123.725C49.4665 124.669 47.8922 126.069 47.8691 129.616Z" fill="#ABDDE8"/>
<path d="M63.6377 124.117L63.3561 126.081L63.9193 124.51L65.0456 126.474L65.8904 125.688L63.6377 124.117Z" fill="#ABDDE8"/>
<path d="M34.6347 124.51C33.931 129.896 41.5667 133.557 44.4901 135.901C45.5559 136.755 46.8914 138.285 48.1507 138.412C49.5166 138.549 51.0135 136.894 52.0928 135.901V135.508L48.1507 138.257L47.6883 134.962L43.6454 131.415L34.6347 124.51Z" fill="#264258"/>
<path d="M51.5297 124.51V125.688H51.8104L51.5297 124.51Z" fill="#F1A844"/>
<path d="M63.9193 124.51L63.3561 128.045C64.8218 127.233 65.5277 125.801 63.9193 124.51Z" fill="#4CD4F0"/>
<path d="M100.525 124.903V125.296L101.651 124.903H100.525Z" fill="#ABDDE8"/>
<path d="M139.947 124.51V125.297H140.51L139.947 124.51Z" fill="#F1A844"/>
<path d="M114.323 128.045V128.831L121.644 134.33V135.115L116.575 139.043C119.789 144.307 121.665 137.683 125.023 137.887C127.876 138.06 129.983 143.209 132.907 143.196C134.112 143.191 135.301 141.848 136.286 141.007C135.321 139.815 134.489 139.135 133.189 139.436L133.47 138.257L128.683 134.722L133.752 130.402V129.616L130.654 127.987L125.304 131.448L117.42 125.998L114.323 128.045Z" fill="#DC4F37"/>
<path d="M110.099 128.045V128.831L116.575 133.937L110.662 134.134L106.72 132.366L109.254 134.33L107.002 136.686V137.079L116.294 134.722L112.07 138.65V139.043L115.731 141.007V140.614L113.478 138.65L118.546 134.722V133.937L111.788 128.831V128.045L113.76 126.081L110.099 128.045Z" fill="#DC4F37"/>
<path d="M72.3668 126.474L73.4932 127.652V127.26L72.3668 126.474Z" fill="#ABDDE8"/>
<path d="M63.0746 126.867V128.438H63.3554L63.0746 126.867Z" fill="#ABDDE8"/>
<path d="M115.731 128.045V128.831L123.052 134.33V135.115L117.983 139.043V139.436C120.801 141.708 122.314 136.54 125.023 136.654C128.657 136.807 130.666 143.382 134.597 141.4V140.614L127.276 133.937L132.344 130.402V129.616C129.389 128.211 128.117 132.551 125.424 132.682C121.76 132.86 119.646 125.349 115.731 128.045Z" fill="#F1A844"/>
<path d="M34.0715 128.045V128.438C37.5694 130.214 40.9883 133.619 44.2085 136.239C46.5234 138.123 47.8629 139.999 50.4033 137.865V137.472C44.6072 140.009 39.7443 129.456 34.0715 128.045Z" fill="#ABDDE8"/>
<path d="M48.4323 133.151C50.4642 132.27 51.7848 131.155 51.8112 128.045C49.8317 128.919 48.4582 130.129 48.4323 133.151Z" fill="#ABDDE8"/>
<path d="M51.8112 128.045V130.402H52.092L51.8112 128.045Z" fill="#F1A844"/>
<path d="M73.7747 128.045L74.3379 128.832V128.045H73.7747Z" fill="#ABDDE8"/>
<path d="M134.597 128.438L137.131 130.009C136.511 128.692 135.701 128.257 134.597 128.438Z" fill="#DC4F37"/>
<path d="M34.0715 128.438C33.3611 134.843 26.9411 133.39 24.7793 129.616H24.4977C25.3328 135.373 33.6872 135.618 34.3531 129.616L47.3059 139.68L52.3744 139.828L51.8113 136.293L48.1507 138.92L44.2085 136.013L34.0715 128.438Z" fill="#4CD4F0"/>
<path d="M138.539 128.438L138.257 130.795L136.286 134.33L140.228 133.937L139.102 128.438H138.539Z" fill="#F1A844"/>
<path d="M74.3379 128.831V130.402H74.6187L74.3379 128.831Z" fill="#ABDDE8"/>
<path d="M68.9878 134.33L72.6484 131.973C71.316 130.274 69.8424 132.771 68.9878 134.33Z" fill="#4CD4F0"/>
<path d="M99.1172 133.937L104.467 137.472L100.807 134.33L103.623 130.795C101.896 131.041 100.361 132.276 99.1172 133.937Z" fill="#DC4F37"/>
<path d="M50.4033 131.973V132.367L51.8113 131.58L50.4033 131.973Z" fill="#264258"/>
<path d="M131.499 134.722L134.033 137.472L135.16 133.937L134.315 134.33V133.937L135.723 133.151L136.286 131.187L131.499 134.722Z" fill="#DC4F37"/>
<path d="M63.9193 131.58V131.973L65.3272 132.367V131.973L63.9193 131.58Z" fill="#ABDDE8"/>
<path d="M27.8767 131.973V132.366H28.7215L27.8767 131.973Z" fill="#F1A844"/>
<path d="M51.5297 131.973L50.9665 132.366V132.759L51.5297 131.973Z" fill="#264258"/>
<path d="M76.8722 131.973L77.1537 133.151H77.4353V131.973H76.8722Z" fill="#ABDDE8"/>
<path d="M141.918 132.366L142.199 133.937L143.326 131.973L141.918 132.366ZM145.86 131.973V132.366L149.521 135.115V135.901L146.705 138.257L151.21 135.901C149.955 133.843 147.807 132.153 145.86 131.973Z" fill="#DC4F37"/>
<path d="M51.5297 132.366C49.6104 134.272 48.16 134.639 48.1507 138.257C50.0184 137.303 52.5099 135.632 51.5297 132.366Z" fill="#ABDDE8"/>
<path d="M51.8112 132.366V135.508H52.092L51.8112 132.366Z" fill="#F1A844"/>
<path d="M58.0061 132.366V133.152H60.5403L58.0061 132.366ZM65.3272 132.366V132.759L66.4536 133.152V132.759L65.3272 132.366Z" fill="#ABDDE8"/>
<path d="M77.4353 132.366L77.1537 134.33H77.4353V132.366Z" fill="#F1A844"/>
<path d="M48.4323 133.544V133.937L49.8402 133.151L48.4323 133.544Z" fill="#264258"/>
<path d="M66.4536 137.079C65.2546 135.708 63.6234 135.804 62.2298 134.954C58.6599 132.776 55.7867 132.417 54.4936 138.65C54.285 139.657 53.9192 140.73 54.1625 141.786C55.0675 145.72 57.6795 143.466 59.2313 145.207C61.2896 147.516 62.7108 163.237 67.4467 156.463C68.459 155.015 67.5025 152.406 67.1038 150.826C65.9304 146.182 62.8459 140.184 66.4536 137.079Z" fill="#264258"/>
<path d="M66.4536 133.151V133.545L67.8615 133.938V133.545L66.4536 133.151Z" fill="#ABDDE8"/>
<path d="M67.8615 133.937V134.33L70.9589 133.544L67.8615 133.937Z" fill="#ABDDE8"/>
<path d="M61.1035 133.544C62.0392 135.149 63.038 135.465 64.4825 135.508V135.115L61.1035 133.544Z" fill="#ABDDE8"/>
<path d="M135.723 135.508L140.791 135.901C140.329 132.948 136.768 133.372 135.723 135.508Z" fill="#DC4F37"/>
<path d="M64.4825 135.508V135.901L66.7351 136.294L64.4825 135.508Z" fill="#ABDDE8"/>
<path d="M74.6195 135.901L74.9011 137.472L75.7458 135.508L74.6195 135.901Z" fill="#F1A844"/>
<path d="M66.172 136.293L66.7351 137.08V136.293H66.172Z" fill="#DC4F37"/>
<path d="M135.16 136.293L134.597 137.079V137.472L138.539 141.4L136.568 143.363L140.228 141.007V140.614L135.16 136.293ZM143.044 136.293L143.607 137.079V136.293H143.044Z" fill="#DC4F37"/>
<path d="M47.8691 136.686V137.865H48.1499L47.8691 136.686Z" fill="#F1A844"/>
<path d="M71.8037 137.079V137.472L72.6484 137.866L71.8037 137.079Z" fill="#ABDDE8"/>
<path d="M70.9589 137.865L72.0852 140.221H72.3668L70.9589 137.865Z" fill="#ABDDE8"/>
<path d="M72.93 137.865V138.258L74.3379 138.651V138.258L72.93 137.865Z" fill="#ABDDE8"/>
<path d="M83.3485 137.865C80.5626 140.156 75.1122 146.6 71.8036 146.023C69.1542 145.561 67.0325 142.053 64.4825 141.007C65.4156 144.85 69.5262 149.382 72.6484 148.777C74.6197 148.395 76.5818 146.174 78.28 144.824C79.9659 143.484 84.5737 141.287 83.3485 137.865Z" fill="#DC4F37"/>
<path d="M116.857 142.578C119.776 146.391 121.733 143.601 124.741 141.792C124.741 146.281 123.374 145.952 121.925 149.255L125.185 147.816L128.402 149.255L125.586 146.506L125.868 141.4C129.561 144.113 131.976 147.852 136.005 144.542L132.344 144.972L125.868 140.145L120.518 143.44L116.857 142.578Z" fill="#DC4F37"/>
<path d="M65.6088 144.542C66.1365 145.84 66.9497 146.38 67.8615 147.135C72.5445 151.016 74.7603 148.469 79.1248 144.993C80.6124 143.809 82.7671 142.737 83.6301 140.614C79.9434 142.241 76.0029 148.824 72.0852 148.779C69.8571 148.753 67.6686 145.588 65.6088 144.542Z" fill="#F1A844"/>
<path d="M71.8036 141.007L72.6484 141.792V141.4L71.8036 141.007ZM83.3485 141.4C80.5696 143.686 75.0869 150.116 71.8036 149.558C69.6456 149.191 67.9572 146.568 65.8904 145.72C66.4144 150.021 68.9588 155.386 72.6484 154.618C74.7025 154.191 76.8065 151.812 78.5616 150.354C81.0801 148.263 84.8502 146.47 83.3485 141.4Z" fill="#DC4F37"/>
<path d="M83.6302 142.578V145.72H83.9109L83.6302 142.578Z" fill="#F1A844"/>
<path d="M83.6302 142.971C85.0828 145.595 88.3008 147.791 89.825 144.149C87.1497 146.025 86.0937 144.492 83.6302 142.971Z" fill="#264258"/>
<path d="M54.9087 143.756C56.0637 145.7 57.8436 146.473 58.9834 148.475C61.6976 153.243 62.6192 158.98 65.8946 163.378C67.536 165.582 70.0896 166.89 71.8036 164.181C68.6375 165.58 65.9577 164.044 65.3272 159.075L64.7641 159.467V159.075L65.0456 157.896C61.4915 156.492 61.5188 149.034 59.579 145.454C58.9452 144.284 56.0322 144.277 54.9087 143.756Z" fill="#4CD4F0"/>
<path d="M84.1933 144.542L83.6302 146.898L88.6986 146.506V146.113L84.1933 144.542Z" fill="#4CD4F0"/>
<path d="M121.644 151.612C124.267 155.576 127.244 156.128 130.091 152.397L126.149 153.942L121.644 151.612Z" fill="#DC4F37"/>
<path d="M67.2983 151.612V152.005L68.1431 152.398L67.2983 151.612Z" fill="#F1A844"/>
<path d="M67.5799 152.005C68.8924 154.613 71.3801 155.146 73.4931 155.147V154.754L67.5799 152.005Z" fill="#ABDDE8"/>
<path d="M67.5799 152.79L67.8615 155.932L71.8036 161.038C71.6519 158.006 72.2046 156.793 74.0563 155.147L71.2405 154.951L67.5799 152.79Z" fill="#4CD4F0"/>
<path d="M75.4642 153.183L74.0563 154.361V154.754L75.7458 153.576L75.4642 153.183Z" fill="#4CD4F0"/>
<path d="M72.93 154.361V154.754H73.7747L72.93 154.361Z" fill="#F1A844"/>
<path d="M65.0457 159.467C66.0563 162.864 70.015 168.366 72.0852 163.002C68.1566 165.235 67.8375 162.516 65.0457 159.467Z" fill="#264258"/>
</g>
<defs>
<clipPath id="clip0_327_2">
<rect width="185" height="174" fill="white"/>
</clipPath>
</defs>
</svg>
